<svg width="810" height="621" viewBox="0 0 810 621" fill="none" xmlns="http://www.w3.org/2000/svg">
<path fill-rule="evenodd" clip-rule="evenodd" d="M258.802 513.542C305.387 552.372 376.242 469.44 435.248 483.717C519.325 504.06 589.177 663.441 656.833 609.848C731.681 550.558 675.738 444.112 702.281 352.566C718.734 295.818 741 277.149 768.468 224.815C799.262 166.143 834.128 76.6515 786.532 30.3278C731.816 -22.9247 637.371 29.7603 561.21 23.0989C522.316 19.6971 487.307 0.955663 448.268 0.741986C409.877 0.531852 373.034 8.4848 337.09 21.8722C296.858 36.8564 264.268 62.9812 226.496 83.3406C150.147 124.494 -5.27213 116.925 0.573234 203.259C6.74254 294.378 184.195 252.909 242.74 323.256C284.251 373.135 208.92 471.963 258.802 513.542Z" fill="#FA2525"/>
<path fill-rule="evenodd" clip-rule="evenodd" d="M276.974 484.261C318.901 519.208 382.67 444.569 435.775 457.419C511.444 475.727 574.312 619.171 635.202 570.937C702.565 517.576 652.217 421.774 676.105 339.383C690.913 288.31 710.952 271.508 735.673 224.407C763.388 171.603 794.768 91.0599 751.931 49.3686C702.687 1.44135 617.686 48.8578 549.141 42.8626C514.137 39.801 482.628 22.9337 447.494 22.7413C412.942 22.5522 379.783 29.7099 347.433 41.7585C311.224 55.2443 281.893 78.7566 247.899 97.0801C179.184 134.118 39.3072 127.306 44.568 205.007C50.1204 287.014 209.827 249.691 262.518 313.004C299.878 357.895 232.08 446.84 276.974 484.261Z" fill="#FA4848"/>
<path fill-rule="evenodd" clip-rule="evenodd" d="M303.915 440.851C338.935 470.042 392.199 407.698 436.557 418.43C499.761 433.723 552.273 553.538 603.133 513.249C659.399 468.678 704.141 477 724.094 408.181C736.463 365.521 666.405 263.144 687.054 223.802C710.203 179.696 736.414 112.421 700.633 77.5973C659.501 37.565 588.502 77.1706 531.248 72.163C502.01 69.6057 475.692 55.5169 446.345 55.3563C417.485 55.1983 389.788 61.1769 362.767 71.2408C332.523 82.5051 308.023 102.144 279.629 117.449C222.233 148.386 105.398 142.696 109.792 207.598C114.43 276.096 247.829 244.922 291.84 297.805C323.046 335.301 266.416 409.595 303.915 440.851Z" fill="#F56666"/>
</svg>
