<svg width="170" height="190" viewBox="0 0 170 190" fill="none" xmlns="http://www.w3.org/2000/svg">
<path d="M0 70C0 31.3401 31.3401 0 70 0H136.889C138.607 0 140 1.39289 140 3.11111V70C140 108.66 108.66 140 70 140C31.3401 140 0 108.66 0 70Z" fill="#FA2525"/>
<path d="M90.6453 189.906C85.3399 189.906 80.0345 189.678 74.7433 189.977C69.9926 190.248 68.3568 188.093 68.5987 183.669C68.7409 181.2 68.556 178.702 68.6271 176.219C68.7409 172.636 68.5987 169.596 65.0712 167.013C61.4868 164.387 61.4441 158.393 64.7867 155.124C67.4465 152.541 66.9629 150.457 65.8393 147.631C62.895 140.238 59.9791 132.802 57.4615 125.252C56.7646 123.169 56.7077 120.186 57.6891 118.33C66.9629 100.804 76.4786 83.4204 86.0226 66.0368C89.4505 59.7855 91.328 59.7998 94.7702 66.0939C104.215 83.3205 113.673 100.547 122.848 117.931C123.914 119.943 123.986 123.112 123.26 125.324C120.728 133.059 117.756 140.652 114.683 148.188C113.517 151.057 113.844 152.841 116.063 155.139C119.42 158.635 118.552 164.002 115.437 167.655C113.816 169.539 112.351 172.294 112.294 174.692C111.895 192.718 114.015 189.62 96.9748 189.92C94.8555 189.963 92.7362 189.92 90.6169 189.92L90.6453 189.906ZM116.831 125.081C113.816 124.896 111.469 125.081 109.335 124.496C108.155 124.168 107.33 122.526 106.334 121.47C107.401 120.5 108.311 119.087 109.549 118.687C111.355 118.102 113.403 118.23 116.006 118.002C108.695 104.586 101.825 91.9838 94.9551 79.3956C94.4715 79.5241 93.9879 79.6525 93.5185 79.781C93.5185 88.5584 93.5754 97.3216 93.49 106.099C93.4616 109.696 93.5612 112.707 96.9748 115.39C100.815 118.416 100.246 124.839 96.733 128.25C93.3478 131.547 87.6868 131.604 84.2162 128.392C80.831 125.238 79.8211 118.73 83.3912 115.99C87.7863 112.607 87.2885 108.525 87.3027 104.187C87.3027 97.2645 87.3312 90.3567 87.2885 83.4347C87.2885 82.1644 86.9898 80.8942 86.8191 79.624C86.4778 79.5669 86.1364 79.5098 85.795 79.4527C78.8823 92.2121 71.9697 104.972 64.616 118.544C67.2758 118.544 68.7978 118.188 70.0495 118.63C71.6425 119.201 73.0222 120.4 74.4872 121.328C73.0364 122.484 71.7278 124.096 70.0779 124.682C68.4422 125.267 66.4509 124.81 63.8764 124.81C67.1621 133.559 69.9784 141.366 73.136 149.03C73.6196 150.215 75.7105 151.414 77.0902 151.442C85.9231 151.656 94.7702 151.685 103.603 151.428C105.082 151.385 107.287 150.001 107.842 148.673C110.971 141.18 113.702 133.516 116.859 125.124L116.831 125.081ZM105.95 183.412C105.95 180.115 105.779 177.303 105.993 174.52C106.277 170.909 104.67 169.939 101.327 170.067C96.221 170.281 91.1005 170.124 85.98 170.124C77.9673 170.124 74.326 174.183 75.0562 182.299C75.0846 182.613 75.3833 182.898 75.682 183.412H105.95ZM90.4035 163.959C96.0503 163.959 101.711 164.159 107.344 163.83C108.852 163.745 110.274 162.089 111.739 161.162C110.274 160.034 108.823 157.965 107.33 157.936C96.0361 157.665 84.7425 157.665 73.4489 157.936C71.9554 157.979 70.5188 160.048 69.0538 161.176C70.5188 162.103 71.9554 163.759 73.4631 163.845C79.0957 164.173 84.7567 163.973 90.4035 163.973V163.959ZM90.1617 117.132C88.9243 119.558 87.7721 120.814 87.8717 121.956C87.9428 122.84 89.6354 124.253 90.5315 124.211C91.4276 124.168 92.9495 122.569 92.9353 121.684C92.9211 120.543 91.641 119.415 90.1617 117.132Z" fill="#111111"/>
<path d="M80.6604 36.436C81.2009 27.5872 87.6157 30.7128 92.2384 30.1277C96.7615 29.5568 99.9476 30.7699 100.104 36.436C116.717 36.436 133.117 36.5074 149.517 36.3218C150.883 36.3076 152.461 34.809 153.557 33.6529C157.61 29.3998 163.214 29.043 167.154 32.9679C170.753 36.5359 170.824 42.3447 167.311 45.9128C163.342 49.9376 157.838 49.7235 153.67 45.4846C152.632 44.4285 151.309 42.9156 150.1 42.8871C141.182 42.6587 132.264 42.7729 122.25 42.7729C127.627 46.2554 132.136 48.8815 136.275 52.0071C137.612 53.0204 137.967 55.3468 138.764 57.0737C136.773 57.0452 134.227 57.8016 132.89 56.8454C124.569 50.8796 115.565 46.6692 105.58 44.4999C102.792 43.8862 100.104 42.8586 98.8666 46.969C98.5964 47.8824 96.6762 48.7673 95.4672 48.8529C92.1246 49.1098 88.7536 49.0242 85.4111 48.8957C84.4296 48.8529 82.7939 48.4676 82.5948 47.8681C80.4612 41.4884 75.6821 44.0431 72.2542 45.3134C65.0286 48.0108 58.1016 51.5361 51.1178 54.8187C49.6955 55.4895 48.6145 57.088 47.1921 57.4448C45.6133 57.8302 43.8069 57.2736 42.1143 57.1308C42.6121 55.618 42.6405 53.4629 43.6789 52.6922C48.1309 49.381 52.8816 46.4694 58.4857 42.7729C48.6003 42.7729 39.6963 42.673 30.7922 42.8871C29.569 42.9156 28.232 44.4 27.2079 45.4561C23.0404 49.7092 17.55 49.9519 13.5674 45.9556C10.0257 42.4018 10.0684 36.6358 13.6527 33.0249C17.5785 29.0715 23.1968 29.4141 27.2648 33.6101C28.4738 34.8518 30.266 36.3218 31.8164 36.3504C47.8891 36.5502 63.9618 36.4788 80.703 36.4788L80.6604 36.436ZM86.9614 36.6358C87.5019 38.9765 87.5446 40.9461 88.4692 42.3019C88.9101 42.9442 91.8828 42.9442 92.2384 42.3447C93.1487 40.8319 93.2341 38.8195 93.7319 36.6358H86.9614ZM19.9823 35.4798C18.7164 37.3209 17.2229 38.5911 17.4362 39.3904C17.7634 40.575 19.2995 41.4313 20.3236 42.4161C21.234 41.4599 22.9123 40.4608 22.8554 39.5759C22.7843 38.3913 21.3477 37.3066 19.9823 35.4798ZM164.679 39.3476C162.845 38.0773 161.579 36.5787 160.796 36.8071C159.616 37.1354 158.777 38.6768 157.781 39.7044C158.734 40.6178 159.73 42.3019 160.611 42.2448C161.792 42.1735 162.873 40.732 164.679 39.3476Z" fill="#111111"/>
<path d="M23.6091 97.1931C28.9572 100.219 31.8019 111.779 28.6443 115.647C27.6486 116.86 25.2875 117.374 23.5238 117.431C10.4665 117.874 8.44671 115.504 10.9074 102.574C11.1492 101.275 12.6 99.2483 13.553 99.2198C17.6494 99.0628 17.7916 96.4795 18.6593 93.3682C20.3946 87.1026 22.7984 80.9941 25.3444 74.9997C25.8849 73.7152 28.2034 73.1729 29.7111 72.288C30.0951 74.0863 31.2188 76.1272 30.7352 77.6544C28.6016 84.3053 25.9987 90.8134 23.6233 97.2074L23.6091 97.1931ZM23.0544 104.886C20.7359 105.029 19.086 105.129 17.4787 105.214V111.28C19.5838 111.137 21.248 111.023 23.0544 110.895V104.886Z" fill="#111111"/>
<path d="M157.141 97.5214C155.093 91.6841 153.059 86.0751 151.195 80.409C150.342 77.8257 146.886 74.5288 150.868 72.6163C155.235 70.5183 155.932 75.4279 156.956 77.9827C159.545 84.5051 161.564 91.2559 163.925 98.2493C171.009 100.333 170.084 97.921 169.8 112.793C169.771 114.377 166.827 117.403 165.618 117.217C160.853 116.504 154.253 120.899 151.594 114.034C148.962 107.241 151.508 100.333 157.155 97.5071L157.141 97.5214ZM163.783 110.966C163.655 108.754 163.57 107.084 163.47 105.357H157.454C157.567 107.455 157.653 109.096 157.738 110.966H163.783Z" fill="#111111"/>
</svg>
