<svg width="389" height="389" viewBox="0 0 389 389" fill="none" xmlns="http://www.w3.org/2000/svg">
<g opacity="0.1">
<path d="M196.069 388.771C183.17 388.771 170.271 388.216 157.407 388.945C145.857 389.604 141.88 384.364 142.468 373.608C142.814 367.604 142.364 361.532 142.537 355.494C142.814 346.785 142.468 339.394 133.892 333.113C125.177 326.729 125.074 312.155 133.2 304.209C139.667 297.928 138.491 292.862 135.759 285.991C128.601 268.017 121.512 249.939 115.391 231.583C113.696 226.516 113.558 219.264 115.944 214.753C138.491 172.142 161.626 129.878 184.83 87.6144C193.164 72.416 197.729 72.4507 206.097 87.7532C229.059 129.635 252.056 171.518 274.361 213.782C276.954 218.674 277.127 226.378 275.364 231.756C269.208 250.563 261.981 269.023 254.511 287.345C251.676 294.319 252.471 298.657 257.866 304.243C266.027 312.745 263.917 325.792 256.344 334.675C252.402 339.255 248.84 345.952 248.702 351.782C247.733 395.607 252.886 388.077 211.458 388.806C206.305 388.91 201.152 388.806 196 388.806L196.069 388.771ZM259.733 231.166C252.402 230.715 246.696 231.166 241.509 229.743C238.638 228.945 236.633 224.955 234.212 222.387C236.806 220.028 239.019 216.592 242.027 215.621C246.419 214.198 251.399 214.51 257.727 213.955C239.953 181.338 223.25 150.698 206.547 120.093C205.371 120.405 204.196 120.718 203.054 121.03C203.054 142.37 203.193 163.676 202.985 185.016C202.916 193.76 203.158 201.082 211.458 207.605C220.794 214.961 219.411 230.576 210.87 238.869C202.639 246.885 188.876 247.024 180.438 239.216C172.208 231.548 169.753 215.725 178.432 209.063C189.118 200.839 187.908 190.915 187.942 180.366C187.942 163.537 188.011 146.742 187.908 129.913C187.908 126.825 187.182 123.737 186.767 120.648C185.937 120.509 185.107 120.371 184.277 120.232C167.47 151.253 150.664 182.275 132.785 215.274C139.252 215.274 142.952 214.406 145.995 215.482C149.868 216.87 153.223 219.785 156.785 222.04C153.257 224.851 150.076 228.772 146.064 230.195C142.088 231.617 137.246 230.507 130.987 230.507C138.975 251.778 145.822 270.758 153.499 289.392C154.675 292.272 159.759 295.187 163.113 295.256C184.588 295.777 206.097 295.846 227.572 295.221C231.169 295.117 236.529 291.751 237.878 288.524C245.486 270.307 252.125 251.674 259.802 231.27L259.733 231.166ZM233.278 372.983C233.278 364.967 232.863 358.132 233.382 351.365C234.074 342.586 230.166 340.227 222.039 340.539C209.625 341.059 197.176 340.678 184.726 340.678C165.246 340.678 156.393 350.544 158.168 370.276C158.237 371.04 158.963 371.734 159.689 372.983H233.278ZM195.481 325.688C209.21 325.688 222.973 326.173 236.667 325.375C240.333 325.167 243.791 321.142 247.353 318.886C243.791 316.145 240.264 311.114 236.633 311.044C209.175 310.385 181.718 310.385 154.26 311.044C150.629 311.148 147.136 316.18 143.575 318.921C147.136 321.177 150.629 325.202 154.295 325.41C167.989 326.208 181.752 325.722 195.481 325.722V325.688ZM194.893 211.839C191.885 217.737 189.084 220.791 189.326 223.567C189.498 225.718 193.614 229.154 195.792 229.049C197.971 228.945 201.671 225.059 201.636 222.908C201.602 220.132 198.49 217.39 194.893 211.839Z" fill="#111111"/>
<path d="M171.793 15.6476C173.107 -5.8661 188.703 1.73309 199.942 0.310411C210.939 -1.07757 218.685 1.87189 219.066 15.6476C259.456 15.6476 299.329 15.8211 339.201 15.37C342.521 15.3353 346.359 11.6918 349.022 8.88118C358.878 -1.45926 372.503 -2.32675 382.082 7.21561C390.831 15.8905 391.004 30.0132 382.462 38.688C372.814 48.4733 359.431 47.9528 349.299 37.6471C346.774 35.0793 343.558 31.4011 340.619 31.3317C318.936 30.7766 297.254 31.0542 272.909 31.0542C285.98 39.5208 296.943 45.9055 307.006 53.5047C310.256 55.9684 311.121 61.6244 313.057 65.823C308.216 65.7536 302.026 67.5927 298.775 65.2678C278.545 50.7635 256.655 40.5271 232.379 35.2528C225.601 33.7607 219.066 31.2623 216.057 41.2558C215.4 43.4766 210.732 45.6279 207.792 45.8361C199.666 46.4607 191.47 46.2525 183.343 45.9402C180.957 45.8361 176.98 44.8992 176.496 43.4419C171.309 27.9312 159.69 34.1424 151.355 37.2307C133.788 43.7889 116.947 52.3596 99.9677 60.3405C96.5096 61.9714 93.8815 65.8577 90.4233 66.7252C86.5848 67.6621 82.193 66.3088 78.0779 65.9618C79.2882 62.2837 79.3573 57.0441 81.8818 55.1703C92.7057 47.12 104.256 40.0413 117.881 31.0542C93.8469 31.0542 72.199 30.8113 50.5512 31.3317C47.5772 31.4011 44.3265 35.0099 41.8367 37.5777C31.7044 47.9181 18.356 48.508 8.67326 38.7921C0.062532 30.152 0.166267 16.1334 8.88074 7.3544C18.4252 -2.25735 32.0848 -1.42456 41.975 8.77708C44.9144 11.7959 49.2717 15.37 53.041 15.4394C92.1178 15.9252 131.195 15.7517 171.897 15.7517L171.793 15.6476ZM187.113 16.1334C188.427 21.8241 188.53 26.6126 190.778 29.9091C191.85 31.4705 199.078 31.4705 199.942 30.0132C202.155 26.335 202.363 21.4424 203.573 16.1334H187.113ZM24.2694 13.3227C21.1917 17.7989 17.5606 20.8872 18.0794 22.8304C18.8747 25.7104 22.6095 27.7924 25.0994 30.1867C27.3126 27.8618 31.3931 25.4328 31.2548 23.2815C31.0819 20.4014 27.5892 17.7642 24.2694 13.3227ZM376.064 22.7263C371.603 19.638 368.526 15.9946 366.624 16.5498C363.753 17.3479 361.713 21.0954 359.293 23.5938C361.609 25.8145 364.03 29.9091 366.174 29.7703C369.044 29.5968 371.673 26.0921 376.064 22.7263Z" fill="#111111"/>
<path d="M33.0871 163.363C46.0897 170.72 53.006 198.826 45.3289 208.23C42.9082 211.179 37.1677 212.428 32.8797 212.567C1.13408 213.643 -3.77644 207.883 2.20611 176.445C2.794 173.287 6.32129 168.36 8.63823 168.291C18.5976 167.909 18.9434 161.628 21.0529 154.064C25.2718 138.831 31.116 123.979 37.3061 109.406C38.6201 106.283 44.2569 104.964 47.9225 102.813C48.8562 107.185 51.5881 112.147 50.4124 115.86C45.2252 132.03 38.8968 147.853 33.1218 163.398L33.0871 163.363ZM31.7385 182.066C26.1017 182.413 22.0903 182.656 18.1826 182.864V197.612C23.3007 197.265 27.3467 196.987 31.7385 196.675V182.066Z" fill="#111111"/>
<path d="M357.736 164.161C352.756 149.969 347.811 136.332 343.281 122.557C341.206 116.276 332.803 108.261 342.486 103.611C353.102 98.51 354.797 110.447 357.286 116.658C363.58 132.516 368.491 148.928 374.231 165.931C391.453 170.997 389.205 165.133 388.513 201.29C388.444 205.142 381.286 212.498 378.346 212.047C366.762 210.312 350.716 220.999 344.249 204.309C337.852 187.792 344.042 170.997 357.77 164.127L357.736 164.161ZM373.885 196.848C373.574 191.47 373.367 187.41 373.125 183.211H358.497C358.773 188.312 358.981 192.303 359.188 196.848H373.885Z" fill="#111111"/>
</g>
</svg>
