<svg width="113" height="113" viewBox="0 0 113 113" fill="none" xmlns="http://www.w3.org/2000/svg">
<path d="M56.698 112.039C52.968 112.039 49.238 111.879 45.518 112.089C42.178 112.279 41.028 110.769 41.198 107.669C41.298 105.939 41.168 104.189 41.218 102.449C41.298 99.9395 41.198 97.8095 38.718 95.9995C36.198 94.1595 36.168 89.9595 38.518 87.6695C40.388 85.8595 40.048 84.3995 39.258 82.4195C37.188 77.2395 35.138 72.0295 33.368 66.7395C32.878 65.2795 32.838 63.1895 33.528 61.8895C40.048 49.6095 46.738 37.4295 53.448 25.2495C55.858 20.8695 57.178 20.8795 59.598 25.2895C66.238 37.3595 72.888 49.4295 79.338 61.6095C80.088 63.0195 80.138 65.2395 79.628 66.7895C77.848 72.2095 75.758 77.5295 73.598 82.8095C72.778 84.8195 73.008 86.0695 74.568 87.6795C76.928 90.1295 76.318 93.8895 74.128 96.4495C72.988 97.7695 71.958 99.6995 71.918 101.379C71.638 114.009 73.128 111.839 61.148 112.049C59.658 112.079 58.168 112.049 56.678 112.049L56.698 112.039ZM75.108 66.6195C72.988 66.4895 71.338 66.6195 69.838 66.2095C69.008 65.9795 68.428 64.8295 67.728 64.0895C68.478 63.4095 69.118 62.4195 69.988 62.1395C71.258 61.7295 72.698 61.8195 74.528 61.6595C69.388 52.2595 64.558 43.4295 59.728 34.6095C59.388 34.6995 59.048 34.7895 58.718 34.8795C58.718 41.0295 58.758 47.1695 58.698 53.3195C58.678 55.8395 58.748 57.9495 61.148 59.8295C63.848 61.9495 63.448 66.4495 60.978 68.8395C58.598 71.1495 54.618 71.1895 52.178 68.9395C49.798 66.7295 49.088 62.1695 51.598 60.2495C54.688 57.8795 54.338 55.0195 54.348 51.9795C54.348 47.1295 54.368 42.2895 54.338 37.4395C54.338 36.5495 54.128 35.6595 54.008 34.7695C53.768 34.7295 53.528 34.6895 53.288 34.6495C48.428 43.5895 43.568 52.5295 38.398 62.0395C40.268 62.0395 41.338 61.7895 42.218 62.0995C43.338 62.4995 44.308 63.3395 45.338 63.9895C44.318 64.7995 43.398 65.9295 42.238 66.3395C41.088 66.7495 39.688 66.4295 37.878 66.4295C40.188 72.5595 42.168 78.0295 44.388 83.3995C44.728 84.2295 46.198 85.0695 47.168 85.0895C53.378 85.2395 59.598 85.2595 65.808 85.0795C66.848 85.0495 68.398 84.0795 68.788 83.1495C70.988 77.8995 72.908 72.5295 75.128 66.6495L75.108 66.6195ZM67.458 107.489C67.458 105.179 67.338 103.209 67.488 101.259C67.688 98.7295 66.558 98.0495 64.208 98.1395C60.618 98.2895 57.018 98.1795 53.418 98.1795C47.7847 98.1795 45.2247 101.023 45.738 106.709C45.758 106.929 45.968 107.129 46.178 107.489H67.458ZM56.528 93.8595C60.498 93.8595 64.4781 93.9995 68.438 93.7695C69.498 93.7095 70.498 92.5495 71.528 91.8995C70.498 91.1095 69.478 89.6595 68.428 89.6395C60.488 89.4495 52.548 89.4495 44.608 89.6395C43.558 89.6695 42.548 91.1195 41.518 91.9095C42.548 92.5595 43.558 93.7195 44.618 93.7795C48.578 94.0095 52.558 93.8695 56.528 93.8695V93.8595ZM56.358 61.0495C55.488 62.7495 54.678 63.6295 54.748 64.4295C54.798 65.0495 55.988 66.0395 56.618 66.0095C57.248 65.9795 58.318 64.8595 58.308 64.2395C58.298 63.4395 57.398 62.6495 56.358 61.0495Z" fill="#FA2525"/>
<path d="M49.6781 4.50946C50.0581 -1.69054 54.5681 0.499457 57.8181 0.0894569C60.9981 -0.310543 63.2381 0.539457 63.3481 4.50946C75.0281 4.50946 86.5581 4.55946 98.0881 4.42946C99.0481 4.41946 100.158 3.36946 100.928 2.55946C103.778 -0.420543 107.718 -0.670543 110.488 2.07946C113.018 4.57946 113.068 8.64946 110.598 11.1495C107.808 13.9695 103.938 13.8195 101.008 10.8495C100.278 10.1095 99.3481 9.04946 98.4981 9.02946C92.2281 8.86946 85.9581 8.94946 78.9181 8.94946C82.6981 11.3895 85.8681 13.2295 88.7781 15.4195C89.7181 16.1295 89.9681 17.7595 90.5281 18.9695C89.1281 18.9495 87.3381 19.4795 86.3981 18.8095C80.5481 14.6295 74.2181 11.6795 67.1981 10.1595C65.2381 9.72946 63.3481 9.00946 62.4781 11.8895C62.2881 12.5295 60.9381 13.1495 60.0881 13.2095C57.7381 13.3895 55.3681 13.3295 53.0181 13.2395C52.3281 13.2095 51.1781 12.9395 51.0381 12.5195C49.5381 8.04946 46.1781 9.83946 43.7681 10.7295C38.6881 12.6195 33.8181 15.0895 28.9081 17.3895C27.9081 17.8595 27.1481 18.9795 26.1481 19.2295C25.0381 19.4995 23.7681 19.1095 22.5781 19.0095C22.9281 17.9495 22.9481 16.4395 23.6781 15.8995C26.8081 13.5795 30.1481 11.5395 34.0881 8.94946C27.1381 8.94946 20.8781 8.87946 14.6181 9.02946C13.7581 9.04946 12.8181 10.0895 12.0981 10.8295C9.16808 13.8095 5.30808 13.9795 2.50808 11.1795C0.0180826 8.68946 0.0480802 4.64946 2.56808 2.11946C5.32808 -0.650543 9.27809 -0.410543 12.1381 2.52946C12.9881 3.39946 14.2481 4.42946 15.3381 4.44946C26.6381 4.58946 37.9381 4.53946 49.7081 4.53946L49.6781 4.50946ZM54.1081 4.64946C54.4881 6.28946 54.5181 7.66946 55.1681 8.61946C55.4781 9.06946 57.5681 9.06946 57.8181 8.64946C58.4581 7.58946 58.5181 6.17946 58.8681 4.64946H54.1081ZM7.01808 3.83946C6.12808 5.12946 5.07808 6.01946 5.22808 6.57946C5.45808 7.40946 6.53808 8.00946 7.25808 8.69946C7.89808 8.02946 9.07808 7.32946 9.03808 6.70946C8.98808 5.87946 7.97808 5.11946 7.01808 3.83946ZM108.748 6.54946C107.458 5.65946 106.568 4.60946 106.018 4.76946C105.188 4.99946 104.598 6.07946 103.898 6.79946C104.568 7.43946 105.268 8.61946 105.888 8.57946C106.718 8.52946 107.478 7.51946 108.748 6.54946Z" fill="#FA2525"/>
<path d="M9.56794 47.0795C13.3279 49.1995 15.328 57.2995 13.108 60.0095C12.408 60.8595 10.7479 61.2195 9.50795 61.2595C0.327946 61.5695 -1.09205 59.9095 0.637951 50.8495C0.807951 49.9395 1.82795 48.5195 2.49795 48.4995C5.37795 48.3895 5.47795 46.5795 6.08795 44.3995C7.30795 40.0095 8.99794 35.7295 10.7879 31.5295C11.1679 30.6295 12.798 30.2495 13.858 29.6295C14.128 30.8895 14.918 32.3195 14.578 33.3895C13.078 38.0495 11.248 42.6095 9.57795 47.0895L9.56794 47.0795ZM9.17794 52.4695C7.54794 52.5695 6.38795 52.6395 5.25795 52.6995V56.9495C6.73795 56.8495 7.90794 56.7695 9.17794 56.6795V52.4695Z" fill="#FA2525"/>
<path d="M103.448 47.3095C102.008 43.2195 100.578 39.2895 99.2679 35.3195C98.6679 33.5095 96.238 31.1995 99.038 29.8595C102.108 28.3895 102.598 31.8295 103.318 33.6195C105.138 38.1895 106.558 42.9195 108.218 47.8195C113.198 49.2795 112.548 47.5895 112.348 58.0095C112.328 59.1195 110.258 61.2395 109.408 61.1095C106.058 60.6095 101.418 63.6895 99.5479 58.8795C97.6979 54.1195 99.4879 49.2795 103.458 47.2995L103.448 47.3095ZM108.118 56.7295C108.028 55.1795 107.968 54.0095 107.898 52.7995H103.668C103.748 54.2695 103.808 55.4195 103.868 56.7295H108.118Z" fill="#FA2525"/>
</svg>
