<svg width="176" height="149" viewBox="0 0 176 149" fill="none" xmlns="http://www.w3.org/2000/svg">
<path d="M36 70C36 31.3401 67.3401 0 106 0H172.889C174.607 0 176 1.39289 176 3.11111V70C176 108.66 144.66 140 106 140C67.3401 140 36 108.66 36 70Z" fill="#FA2525"/>
<path d="M123.625 131.75H14.375C10.5639 131.745 6.91023 130.229 4.21538 127.535C1.52054 124.84 0.00456509 121.186 0 117.375V48.375C0.00456509 44.5639 1.52054 40.9102 4.21538 38.2154C6.91023 35.5205 10.5639 34.0046 14.375 34V39.75C12.0875 39.75 9.89371 40.6587 8.2762 42.2762C6.6587 43.8937 5.75 46.0875 5.75 48.375V117.375C5.75 119.662 6.6587 121.856 8.2762 123.474C9.89371 125.091 12.0875 126 14.375 126H123.625C125.912 126 128.106 125.091 129.724 123.474C131.341 121.856 132.25 119.662 132.25 117.375V48.375C132.25 46.0875 131.341 43.8937 129.724 42.2762C128.106 40.6587 125.912 39.75 123.625 39.75V34C127.436 34.0046 131.09 35.5205 133.785 38.2154C136.479 40.9102 137.995 44.5639 138 48.375V117.375C137.995 121.186 136.479 124.84 133.785 127.535C131.09 130.229 127.436 131.745 123.625 131.75Z" fill="black"/>
<path d="M97.75 143.25H40.25V149H97.75V143.25Z" fill="black"/>
<path d="M54.625 128.875H48.875V146.125H54.625V128.875Z" fill="black"/>
<path d="M89.125 128.875H83.375V146.125H89.125V128.875Z" fill="black"/>
<path d="M109.25 108.75H28.75C26.4625 108.75 24.2687 107.841 22.6512 106.224C21.0337 104.606 20.125 102.412 20.125 100.125V45.5H25.875V100.125C25.875 100.887 26.1779 101.619 26.7171 102.158C27.2562 102.697 27.9875 103 28.75 103H109.25C110.012 103 110.744 102.697 111.283 102.158C111.822 101.619 112.125 100.887 112.125 100.125V19.625C112.125 18.8625 111.822 18.1312 111.283 17.5921C110.744 17.0529 110.012 16.75 109.25 16.75H28.75C27.9875 16.75 27.2562 17.0529 26.7171 17.5921C26.1779 18.1312 25.875 18.8625 25.875 19.625V34H106.375V39.75H23C22.2375 39.75 21.5062 39.4471 20.9671 38.9079C20.4279 38.3688 20.125 37.6375 20.125 36.875V19.625C20.125 17.3375 21.0337 15.1437 22.6512 13.5262C24.2687 11.9087 26.4625 11 28.75 11H109.25C111.537 11 113.731 11.9087 115.349 13.5262C116.966 15.1437 117.875 17.3375 117.875 19.625V100.125C117.875 102.412 116.966 104.606 115.349 106.224C113.731 107.841 111.537 108.75 109.25 108.75Z" fill="black"/>
<path d="M25.875 120.25H20.125C17.8375 120.25 15.6437 119.341 14.0262 117.724C12.4087 116.106 11.5 113.912 11.5 111.625V105.875H17.25V111.625C17.25 112.387 17.5529 113.119 18.0921 113.658C18.6312 114.197 19.3625 114.5 20.125 114.5H25.875V120.25Z" fill="black"/>
<path d="M37.375 114.5H31.625V120.25H37.375V114.5Z" fill="black"/>
<path d="M37.375 22.5H31.625V28.25H37.375V22.5Z" fill="black"/>
<path d="M48.875 22.5H43.125V28.25H48.875V22.5Z" fill="black"/>
<path d="M60.375 22.5H54.625V28.25H60.375V22.5Z" fill="black"/>
<path d="M52.5918 79.1575L38.2168 64.7825C37.6778 64.2434 37.375 63.5123 37.375 62.7499C37.375 61.9876 37.6778 61.2564 38.2168 60.7173L52.5918 46.3423L56.657 50.4075L44.3146 62.7499L56.657 75.0923L52.5918 79.1575Z" fill="black"/>
<path d="M85.4075 79.1575L81.3423 75.0923L93.6847 62.7499L81.3423 50.4075L85.4075 46.3423L99.7825 60.7173C100.322 61.2564 100.624 61.9876 100.624 62.7499C100.624 63.5123 100.322 64.2434 99.7825 64.7825L85.4075 79.1575Z" fill="black"/>
<path d="M72.0729 47.3077L60.5835 76.0609L65.923 78.1945L77.4124 49.4413L72.0729 47.3077Z" fill="black"/>
<path d="M103.5 91.5H34.5V97.25H103.5V91.5Z" fill="black"/>
</svg>
