<svg width="320" height="266" viewBox="0 0 320 266" fill="none" xmlns="http://www.w3.org/2000/svg">
<g opacity="0.1">
<path d="M0 228.285V0H320V228.097H180.002C178.876 229.839 178.287 230.348 178.233 230.91C176.554 246.987 183.717 255.025 199.722 255.025C208.975 255.025 213.369 258.571 212.905 265.662H107.015V255.025C115.937 255.025 124.538 254.703 133.112 255.132C139.945 255.48 142.972 253.23 142.356 246.076C141.874 240.556 142.249 234.956 142.249 228.285H0ZM309.443 11.4945H11.0123V212.128H309.443V11.4945Z" fill="#111111"/>
<path d="M192.89 145.813C184.638 141.151 183.807 136.81 190.318 130.781C196.347 125.182 201.598 118.724 207.922 111.865C201.679 105.14 195.864 98.8966 190.104 92.6001C185.906 88.0272 186.736 83.106 192.595 77.8366C202.884 88.8221 213.227 99.8344 224.453 111.811C213.87 123.225 203.581 134.318 192.89 145.84V145.813Z" fill="#111111"/>
<path d="M127.11 145.733C116.795 134.694 106.452 123.628 95.5201 111.892C106.425 100.183 116.714 89.0903 128.155 76.7919C131.317 79.8196 133.594 82.0435 136.702 85.0176C127.887 94.5831 120.305 102.809 111.945 111.919C118.027 118.457 123.547 125.048 129.736 130.862C136.22 136.917 135.256 141.231 127.11 145.76V145.733Z" fill="#111111"/>
<path d="M166.309 70.6828C174.696 71.1115 177.509 73.7372 175.017 81.5075C168.051 103.318 161.862 125.369 154.868 147.153C154.118 149.511 150.233 150.85 147.822 152.672C146.535 149.939 143.561 146.724 144.178 144.527C151.171 120.01 158.727 95.628 166.283 70.7096L166.309 70.6828Z" fill="#111111"/>
</g>
</svg>

