<svg width="123" height="123" viewBox="0 0 123 123" fill="none" xmlns="http://www.w3.org/2000/svg">
<path d="M110.188 107.625H12.8125C9.41566 107.621 6.15912 106.27 3.75719 103.868C1.35526 101.466 0.00406888 98.2093 0 94.8125V33.3125C0.00406888 29.9157 1.35526 26.6591 3.75719 24.2572C6.15912 21.8553 9.41566 20.5041 12.8125 20.5V25.625C10.7736 25.625 8.8183 26.4349 7.37662 27.8766C5.93493 29.3183 5.125 31.2736 5.125 33.3125V94.8125C5.125 96.8513 5.93493 98.8067 7.37662 100.248C8.8183 101.69 10.7736 102.5 12.8125 102.5H110.188C112.226 102.5 114.182 101.69 115.623 100.248C117.065 98.8067 117.875 96.8513 117.875 94.8125V33.3125C117.875 31.2736 117.065 29.3183 115.623 27.8766C114.182 26.4349 112.226 25.625 110.188 25.625V20.5C113.584 20.5041 116.841 21.8553 119.243 24.2572C121.645 26.6591 122.996 29.9157 123 33.3125V94.8125C122.996 98.2093 121.645 101.466 119.243 103.868C116.841 106.27 113.584 107.621 110.188 107.625Z" fill="#FA2525"/>
<path d="M87.125 117.875H35.875V123H87.125V117.875Z" fill="#FA2525"/>
<path d="M48.6875 105.062H43.5625V120.438H48.6875V105.062Z" fill="#FA2525"/>
<path d="M79.4375 105.062H74.3125V120.438H79.4375V105.062Z" fill="#FA2525"/>
<path d="M97.375 87.125H25.625C23.5861 87.125 21.6308 86.3151 20.1891 84.8734C18.7474 83.4317 17.9375 81.4763 17.9375 79.4375V30.75H23.0625V79.4375C23.0625 80.1171 23.3325 80.7689 23.813 81.2495C24.2936 81.73 24.9454 82 25.625 82H97.375C98.0546 82 98.7064 81.73 99.187 81.2495C99.6675 80.7689 99.9375 80.1171 99.9375 79.4375V7.6875C99.9375 7.00788 99.6675 6.3561 99.187 5.87554C98.7064 5.39498 98.0546 5.125 97.375 5.125H25.625C24.9454 5.125 24.2936 5.39498 23.813 5.87554C23.3325 6.3561 23.0625 7.00788 23.0625 7.6875V20.5H94.8125V25.625H20.5C19.8204 25.625 19.1686 25.355 18.688 24.8745C18.2075 24.3939 17.9375 23.7421 17.9375 23.0625V7.6875C17.9375 5.64865 18.7474 3.6933 20.1891 2.25162C21.6308 0.809931 23.5861 0 25.625 0H97.375C99.4138 0 101.369 0.809931 102.811 2.25162C104.253 3.6933 105.062 5.64865 105.062 7.6875V79.4375C105.062 81.4763 104.253 83.4317 102.811 84.8734C101.369 86.3151 99.4138 87.125 97.375 87.125Z" fill="#FA2525"/>
<path d="M23.0625 97.375H17.9375C15.8986 97.375 13.9433 96.5651 12.5016 95.1234C11.0599 93.6817 10.25 91.7263 10.25 89.6875V84.5625H15.375V89.6875C15.375 90.3671 15.645 91.0189 16.1255 91.4995C16.6061 91.98 17.2579 92.25 17.9375 92.25H23.0625V97.375Z" fill="#FA2525"/>
<path d="M33.3125 92.25H28.1875V97.375H33.3125V92.25Z" fill="#FA2525"/>
<path d="M33.3125 10.25H28.1875V15.375H33.3125V10.25Z" fill="#FA2525"/>
<path d="M43.5625 10.25H38.4375V15.375H43.5625V10.25Z" fill="#FA2525"/>
<path d="M53.8125 10.25H48.6875V15.375H53.8125V10.25Z" fill="#FA2525"/>
<path d="M46.8753 60.7491L34.0628 47.9366C33.5824 47.4561 33.3125 46.8044 33.3125 46.1249C33.3125 45.4454 33.5824 44.7938 34.0628 44.3132L46.8753 31.5007L50.4986 35.1241L39.4978 46.1249L50.4986 57.1257L46.8753 60.7491Z" fill="#FA2525"/>
<path d="M76.1241 60.7491L72.5007 57.1257L83.5015 46.1249L72.5007 35.1241L76.1241 31.5007L88.9366 44.3132C89.417 44.7938 89.6869 45.4454 89.6869 46.1249C89.6869 46.8044 89.417 47.4561 88.9366 47.9366L76.1241 60.7491Z" fill="#FA2525"/>
<path d="M64.2389 32.3612L53.9983 57.9891L58.7574 59.8908L68.998 34.2629L64.2389 32.3612Z" fill="#FA2525"/>
<path d="M92.25 71.75H30.75V76.875H92.25V71.75Z" fill="#FA2525"/>
</svg>
