<svg width="962" height="979" viewBox="0 0 962 979" fill="none" xmlns="http://www.w3.org/2000/svg">
<path fill-rule="evenodd" clip-rule="evenodd" d="M614.437 798.03C669.089 783.785 641.473 681.255 683.473 643.334C743.318 589.299 904.158 625.549 897.751 542.225C890.663 450.042 778.382 433.083 720.87 360.232C685.219 315.073 682.306 287.062 655.858 235.82C626.208 178.373 574.652 100.195 513.627 110.961C443.474 123.338 435.16 227.054 390.126 282.702C367.128 311.12 334.199 327.77 313.611 358.117C293.366 387.96 280.296 421.245 271.935 456.922C262.576 496.856 265.904 537.169 262.024 578.244C254.182 661.269 166.981 778.258 237.371 822.864C311.662 869.941 372.143 707.828 457.631 702.198C518.246 698.206 555.917 813.283 614.437 798.03Z" fill="#FA2525"/>
<path fill-rule="evenodd" clip-rule="evenodd" d="M601.22 759.64C650.407 746.82 625.553 654.543 663.353 620.414C717.213 571.783 861.97 604.408 856.203 529.416C849.824 446.451 748.771 431.188 697.01 365.622C664.924 324.979 662.302 299.77 638.499 253.651C611.815 201.949 565.414 131.589 510.491 141.279C447.354 152.418 439.871 245.762 399.34 295.845C378.642 321.421 349.006 336.407 330.477 363.719C312.256 390.578 300.494 420.534 292.969 452.643C284.546 488.583 287.54 524.866 284.049 561.833C276.991 636.556 198.51 741.846 261.861 781.991C328.723 824.36 383.156 678.459 460.095 673.391C514.648 669.798 548.552 773.368 601.22 759.64Z" fill="#FA4848"/>
<path fill-rule="evenodd" clip-rule="evenodd" d="M581.343 721.424C622.427 710.715 601.667 633.639 633.24 605.131C678.229 564.511 799.14 591.762 794.323 529.123C788.995 459.825 818.888 429.645 775.654 374.88C748.853 340.932 632.363 337.306 612.481 298.785C590.192 255.599 571.273 121.047 525.397 129.141C472.66 138.445 446.572 292.195 412.718 334.028C395.43 355.391 370.675 367.908 355.199 390.721C339.979 413.156 330.154 438.177 323.869 464.998C316.833 495.017 319.335 525.323 316.418 556.2C310.523 618.614 244.97 706.561 297.885 740.092C353.733 775.483 399.2 653.615 463.465 649.382C509.032 646.381 537.351 732.89 581.343 721.424Z" fill="#F56666"/>
</svg>
