<svg width="21" height="22" viewBox="0 0 21 22" fill="none" xmlns="http://www.w3.org/2000/svg">
<path d="M19.5107 0H1.7191C1.10987 0 0.615234 0.52244 0.615234 1.16826V19.9977C0.615234 20.6435 1.10987 21.1667 1.7191 21.1667H11.2976V12.9697H8.69137V9.77475H11.2976V7.41872C11.2976 4.68523 12.8747 3.19598 15.1792 3.19598C16.2841 3.19598 17.2315 3.28346 17.5078 3.32145V6.17866L15.9093 6.17936C14.6563 6.17936 14.4145 6.80984 14.4145 7.73448V9.77371H17.4041L17.0132 12.9683H14.4142V21.1656H19.5104C20.1203 21.1656 20.6152 20.6418 20.6152 19.9977V1.16756C20.6149 0.52244 20.1206 0 19.5107 0Z" fill="#FA2525"/>
</svg>
