<svg width="64" height="69" viewBox="0 0 64 69" fill="none" xmlns="http://www.w3.org/2000/svg">
<path d="M63.0029 32.8904C62.7962 34.9804 62.5818 37.0014 62.4 39.024C62.1405 41.905 61.5299 44.7268 60.5169 47.3809C59.5566 49.8968 58.3649 52.3569 56.9774 54.6393C53.6585 60.1004 48.7781 63.5931 43.1861 65.966C38.5885 67.9179 33.7547 68.551 28.8075 68.1432C28.7081 68.1349 28.6102 68.0955 28.4766 68.0609V51.4952C29.1851 51.5396 29.8485 51.5692 30.5104 51.6268C34.6854 51.9951 38.8262 51.6958 42.9359 50.8818C47.4559 49.9856 51.6728 48.3116 55.3444 45.3057C58.5809 42.6565 60.8633 39.2789 62.1312 35.1514C62.3534 34.4279 62.5616 33.6978 62.7791 32.971C62.7838 32.9562 62.8226 32.9529 62.9998 32.8904H63.0029Z" fill="#FA2525"/>
<path d="M12.3596 8.53355V61.439C5.64264 56.7064 -0.59885 45.4932 0.0459644 33.4545C0.594445 23.2 4.55034 14.7922 12.1172 8.38062C12.198 8.43159 12.2788 8.48092 12.3596 8.5319V8.53355Z" fill="#FA2525"/>
<path d="M28.4358 15.9053C33.2463 15.19 37.9511 14.6391 42.4244 17.0022C45.3657 18.5561 46.9785 21.1855 47.3763 24.6388C47.6746 27.2254 47.3856 29.7249 46.2591 32.0633C44.8778 34.9311 42.5844 36.6512 39.7535 37.6214C36.228 38.83 32.6294 38.7478 29.0076 38.261C28.3908 38.1788 28.4343 37.7792 28.4343 37.3287C28.4374 32.9759 28.4358 28.6232 28.4358 24.2704C28.4358 21.8334 28.4358 19.3981 28.4358 16.961C28.4358 16.6634 28.4358 16.3658 28.4358 15.907V15.9053Z" fill="#FA2525"/>
<path d="M26.7393 2.24354C29.303 1.99523 31.8636 1.64991 34.4335 1.52164C38.9022 1.29965 43.3786 1.24045 47.8503 1.05957C51.9088 0.895126 55.9641 0.678065 60.0195 0.442914C61.2003 0.373849 62.375 0.155143 63.5527 0.0104356C63.7267 -0.0109417 63.9039 0.00714679 64.0002 0.00714679C63.7299 7.13071 63.4611 14.1984 63.1985 21.0835C62.7432 19.6562 62.3315 18.0118 61.7053 16.466C59.6932 11.5048 56.3246 7.90194 51.6881 5.65239C47.6856 3.71035 43.4454 2.7681 39.0684 2.61189C35.0908 2.47047 31.1069 2.50993 27.1246 2.46882C26.9987 2.46882 26.8729 2.46882 26.747 2.46882C26.7439 2.39318 26.7424 2.31754 26.7393 2.24354Z" fill="#FA2525"/>
</svg>
