<svg width="180" height="166" viewBox="0 0 180 166" fill="none" xmlns="http://www.w3.org/2000/svg">
<path d="M0 70C0 31.3401 31.3401 0 70 0H136.889C138.607 0 140 1.39289 140 3.11111V70C140 108.66 108.66 140 70 140C31.3401 140 0 108.66 0 70Z" fill="#FA2525"/>
<path d="M75.6443 109.264C75.671 104.989 72.0487 100.301 68.0403 99.8353C63.3793 99.3026 63.6057 96.3595 63.6057 93.0969C63.6057 89.7143 63.2461 86.7312 68.1734 85.9455C74.3925 84.9601 77.269 77.9553 73.6601 72.6684C71.1431 68.9929 72.6613 67.0886 75.1516 64.7447C77.6685 62.3743 79.493 59.6842 83.7944 62.6007C89.3476 66.3694 95.9662 63.2799 97.2047 56.5414C98.057 51.8937 101.133 52.4397 104.263 52.4131C107.286 52.3865 110.069 52.1201 110.881 56.4482C112.2 63.4929 118.592 66.2895 124.611 62.3477C128.234 59.9772 130.018 61.815 132.095 64.0656C134.24 66.3827 137.302 68.0474 134.519 72.2955C130.564 78.3415 133.401 84.8003 140.445 86.0521C145.253 86.9044 144.361 90.1538 144.414 93.1634C144.467 96.1065 144.893 99.0096 140.472 99.8086C133.361 101.087 130.524 107.453 134.519 113.525C137.116 117.48 134.612 119.172 132.468 121.396C130.271 123.686 128.447 125.897 124.571 123.46C118.366 119.545 112.213 122.248 110.868 129.413C110.042 133.86 107.073 133.288 104.17 133.301C101.107 133.301 97.9771 133.94 97.1514 129.199C95.9795 122.514 89.3609 119.518 83.7012 123.273C79.3065 126.203 77.5353 123.273 75.0184 120.983C72.4349 118.639 70.8368 116.375 73.7799 113.086C74.8187 111.914 75.2182 110.169 75.6177 109.277L75.6443 109.264ZM104.289 74.0268C94.5945 72.5219 84.8464 82.3766 84.8597 92.9903C84.8597 103.684 94.8875 112.047 103.956 112.127C113.944 112.207 123.16 102.472 123.24 93.0702C123.32 82.8293 113.318 72.5619 104.289 74.0268Z" fill="#111111"/>
<path d="M29.5407 34.4084C29.5407 38.4168 29.1013 41.2533 29.6739 43.8768C30.2199 46.3804 31.3785 49.0438 33.0698 50.8949C34.6012 52.5729 38.2501 54.7702 39.1823 54.131C42.7513 51.694 47.945 50.1092 47.4922 44.1165C47.2924 41.3466 47.4522 38.5367 47.4522 35.6469C53.2851 37.0052 57.9195 45.8744 56.5212 52.453C55.3493 58.0063 52.4994 62.4142 47.7718 65.7834C46.3203 66.8089 44.9752 69.0994 44.9486 70.8306C44.7222 85.8923 44.7355 100.967 44.922 116.029C44.9486 117.667 46.1072 119.771 47.4123 120.836C52.9522 125.351 56.0684 130.718 54.6301 138.055C53.0188 146.259 47.4389 150.613 39.7549 152.052C33.376 153.25 22.6292 147.164 21.7769 137.776C21.0844 130.158 23.4015 124.206 30.2465 120.197C31.3785 119.531 32.4838 117.707 32.4971 116.415C32.6569 101.18 32.7635 85.9455 32.3906 70.7241C32.3506 68.8197 29.847 66.5292 27.9427 65.1975C18.4076 58.5523 17.1958 44.4361 25.732 36.7655C26.4245 36.1396 27.3434 35.7534 29.5274 34.4217L29.5407 34.4084ZM38.1835 141.691C42.4716 141.651 44.8554 139.201 44.7755 134.899C44.6956 130.758 41.9922 127.961 38.077 127.988C34.7877 128.014 31.2054 131.73 31.192 135.099C31.192 139.054 34.0153 141.718 38.1835 141.678V141.691Z" fill="#111111"/>
<path d="M161.952 118.879C161.952 111.275 162.072 103.657 161.899 96.0665C161.819 92.6174 163.044 91.5254 166.494 91.4721C179.997 91.2458 180.01 91.1392 179.984 104.536C179.957 117.094 180.13 129.679 179.744 142.224C179.518 149.655 171.754 153.516 165.881 149.135C163.857 147.63 162.325 144.301 162.152 141.691C161.659 134.113 161.979 126.496 161.979 118.879H161.952Z" fill="#111111"/>
<path d="M167.4 67.4347C167.4 63.2931 167.759 59.1248 167.28 55.0498C166.92 51.9869 165.362 49.0704 164.55 46.0341C164.017 44.0499 163.524 41.9324 163.618 39.9082C163.737 37.3114 164.483 34.7545 164.923 32.171C165.482 28.9083 167.506 28.0161 170.609 28.1892C173.339 28.3357 176.069 28.0427 176.722 31.6383C177.254 34.5415 178.107 37.4712 178.08 40.3877C178.053 42.6249 176.908 44.8622 176.216 47.0862C175.55 49.2169 174.258 51.3077 174.218 53.4384C174.005 63.1865 174.138 72.948 174.111 82.7094C174.111 84.8135 174.538 87.1174 171.128 87.2106C167.812 87.3038 167.32 85.4927 167.373 82.8159C167.453 77.6889 167.4 72.5618 167.4 67.4347Z" fill="#111111"/>
<path d="M103.384 165.795C89.2148 166.128 75.8577 161.6 63.5128 153.716C62.8203 153.277 61.9547 152.891 61.5818 152.238C60.7695 150.84 60.2368 149.282 59.5975 147.79C61.1956 148.017 62.9535 147.897 64.3651 148.523C72.2887 152.012 79.8262 156.832 88.0695 159.07C110.336 165.116 130.311 159.203 148.289 145.273C149.621 144.234 151.792 144.261 153.563 143.795C152.684 145.54 152.245 147.83 150.873 148.935C137.223 159.895 121.788 166.088 103.397 165.795H103.384Z" fill="#111111"/>
<path d="M102.638 20.066C121.802 19.7863 137.236 25.9921 150.979 36.8854C151.752 37.498 152.737 38.084 153.11 38.923C153.763 40.3479 154.016 41.9726 154.442 43.504C152.91 43.0912 150.966 43.1445 149.914 42.199C126.969 21.5442 94.2487 18.7076 67.3748 35.1942C66.5358 35.7136 65.79 36.5525 64.8845 36.7789C63.7525 37.0586 62.5007 36.8455 61.2888 36.8588C61.6085 35.5671 61.5019 33.6228 62.3143 33.1034C66.4692 30.4533 70.6907 27.7632 75.2185 25.8456C84.3807 21.9703 93.929 19.52 102.625 20.0793L102.638 20.066Z" fill="#111111"/>
</svg>



