<svg width="320" height="292" viewBox="0 0 320 292" fill="none" xmlns="http://www.w3.org/2000/svg">
<g opacity="0.1">
<path d="M111.289 178.528C111.342 169.978 104.097 160.603 96.0805 159.671C86.7585 158.605 87.2113 152.719 87.2113 146.194C87.2113 139.429 86.4922 133.462 96.3469 131.891C108.785 129.92 114.538 115.911 107.32 105.337C102.286 97.9858 105.323 94.1771 110.303 89.4895C115.337 84.7486 118.986 79.3685 127.589 85.2014C138.695 92.7388 151.932 86.5597 154.409 73.0828C156.114 63.7875 162.266 64.8795 168.526 64.8262C174.571 64.7729 180.138 64.2402 181.763 72.8964C184.399 86.9858 197.184 92.579 209.223 84.6953C216.467 79.9544 220.036 83.6299 224.191 88.1311C228.479 92.7655 234.605 96.0947 229.038 104.591C221.128 116.683 226.801 129.601 240.891 132.104C250.506 133.809 248.721 140.307 248.828 146.327C248.934 152.213 249.786 158.019 240.944 159.617C226.721 162.174 221.048 174.905 229.038 187.051C234.232 194.961 229.225 198.343 224.937 202.791C220.542 207.372 216.893 211.794 209.143 206.92C196.731 199.089 184.426 204.496 181.736 218.825C180.085 227.721 174.145 226.576 168.339 226.602C162.213 226.602 155.954 227.881 154.303 218.399C151.959 205.029 138.722 199.036 127.402 206.547C118.613 212.406 115.071 206.547 110.037 201.966C104.87 197.278 101.674 192.75 107.56 186.172C109.637 183.828 110.436 180.339 111.235 178.554L111.289 178.528ZM168.579 108.054C149.189 105.044 129.693 124.753 129.719 145.981C129.719 167.368 149.775 184.094 167.913 184.254C187.889 184.414 206.319 164.944 206.479 146.14C206.639 125.659 186.637 105.124 168.579 108.054Z" fill="#111111"/>
<path d="M19.0814 28.8167C19.0814 36.8336 18.2025 42.5067 19.3478 47.7536C20.4398 52.7608 22.757 58.0877 26.1395 61.7898C29.2024 65.1457 36.5002 69.5404 38.3646 68.262C45.5026 63.3879 55.8899 60.2184 54.9843 48.233C54.5848 42.6931 54.9044 37.0733 54.9044 31.2937C66.5702 34.0104 75.8389 51.7487 73.0423 64.906C70.6985 76.0125 64.9988 84.8284 55.5437 91.5669C52.6405 93.6177 49.9505 98.1988 49.8972 101.661C49.4444 131.784 49.4711 161.934 49.8439 192.058C49.8972 195.334 52.2144 199.542 54.8245 201.673C65.9043 210.702 72.1368 221.435 69.2603 236.111C66.0375 252.517 54.8778 261.227 39.5099 264.103C26.7521 266.5 5.25831 254.328 3.55372 235.551C2.16874 220.317 6.80309 208.411 20.4931 200.394C22.757 199.062 24.9676 195.414 24.9942 192.83C25.3138 162.361 25.5269 131.891 24.7812 101.448C24.7013 97.6395 19.694 93.0584 15.8853 90.395C-3.18473 77.1045 -5.60845 48.8723 11.4641 33.531C12.849 32.2792 14.6868 31.5068 19.0548 28.8434L19.0814 28.8167ZM36.367 243.382C44.9432 243.302 49.7108 238.401 49.551 229.798C49.3912 221.515 43.9844 215.922 36.154 215.975C29.5753 216.028 22.4107 223.459 22.3841 230.198C22.3841 238.108 28.0305 243.435 36.367 243.355V243.382Z" fill="#111111"/>
<path d="M283.905 197.757C283.905 182.549 284.145 167.314 283.798 152.133C283.638 145.235 286.089 143.051 292.987 142.944C319.994 142.491 320.021 142.278 319.968 169.072C319.914 194.188 320.261 219.358 319.488 244.447C319.035 259.309 303.508 267.033 291.762 258.27C287.714 255.261 284.651 248.602 284.304 243.382C283.319 228.227 283.958 212.992 283.958 197.757H283.905Z" fill="#111111"/>
<path d="M294.799 94.8693C294.799 86.5861 295.518 78.2496 294.56 70.0996C293.84 63.9737 290.724 58.1408 289.099 52.0682C288.034 48.0997 287.049 43.8649 287.235 39.8165C287.475 34.6228 288.966 29.5091 289.845 24.342C290.964 17.8167 295.012 16.0321 301.218 16.3784C306.678 16.6714 312.138 16.0854 313.443 23.2767C314.509 29.0829 316.213 34.9424 316.16 40.7753C316.107 45.2499 313.816 49.7244 312.431 54.1723C311.099 58.4338 308.516 62.6154 308.436 66.8768C308.01 86.373 308.276 105.896 308.223 125.419C308.223 129.627 309.075 134.235 302.257 134.421C295.625 134.608 294.639 130.985 294.746 125.632C294.906 115.378 294.799 105.124 294.799 94.8693Z" fill="#111111"/>
<path d="M166.768 291.59C138.43 292.256 111.715 283.2 87.0256 267.432C85.6406 266.554 83.9093 265.781 83.1636 264.476C81.5389 261.679 80.4735 258.563 79.1951 255.58C82.3912 256.033 85.9069 255.793 88.7301 257.045C104.577 264.023 119.652 273.665 136.139 278.139C180.671 290.231 220.623 278.406 256.579 250.546C259.242 248.469 263.584 248.522 267.126 247.59C265.368 251.079 264.489 255.66 261.746 257.871C234.446 279.791 203.577 292.176 166.795 291.59H166.768Z" fill="#111111"/>
<path d="M165.277 0.131937C203.603 -0.42738 234.472 11.9841 261.959 33.7709C263.504 34.9961 265.475 36.168 266.22 37.846C267.526 40.6958 268.032 43.9452 268.884 47.0081C265.821 46.1824 261.932 46.289 259.828 44.3979C213.938 3.08832 148.497 -2.58475 94.7495 30.3884C93.0716 31.4271 91.58 33.1051 89.7689 33.5578C87.505 34.1172 85.0014 33.691 82.5777 33.7176C83.2169 31.1341 83.0038 27.2455 84.6285 26.2068C92.9384 20.9066 101.381 15.5265 110.437 11.6912C128.761 3.94062 147.858 -0.960079 165.25 0.158557L165.277 0.131937Z" fill="#111111"/>
</g>
</svg>

