<svg width="121" height="110" viewBox="0 0 121 110" fill="none" xmlns="http://www.w3.org/2000/svg">
<path d="M41.7841 67.0295C41.8041 63.8195 39.0841 60.2995 36.0741 59.9495C32.5741 59.5495 32.7441 57.3395 32.7441 54.8895C32.7441 52.3495 32.4741 50.1095 36.1741 49.5195C40.8441 48.7795 43.0041 43.5195 40.2941 39.5495C38.4041 36.7895 39.5441 35.3595 41.4141 33.5995C43.3041 31.8195 44.6741 29.7995 47.9041 31.9895C52.0741 34.8195 57.0441 32.4995 57.9741 27.4395C58.6141 23.9495 60.9241 24.3595 63.2741 24.3395C65.5441 24.3195 67.6341 24.1195 68.2441 27.3695C69.2341 32.6595 74.0341 34.7595 78.5541 31.7995C81.2741 30.0195 82.6141 31.3995 84.1741 33.0895C85.7841 34.8295 88.0841 36.0795 85.9941 39.2695C83.0241 43.8095 85.1541 48.6595 90.4441 49.5995C94.0541 50.2395 93.3841 52.6795 93.4241 54.9395C93.4641 57.1495 93.7841 59.3295 90.4641 59.9295C85.1241 60.8895 82.9941 65.6695 85.9941 70.2295C87.9441 73.1995 86.0641 74.4695 84.4541 76.1395C82.8041 77.8595 81.4341 79.5195 78.5241 77.6895C73.8641 74.7495 69.2441 76.7795 68.2341 82.1595C67.6141 85.4995 65.3841 85.0695 63.2041 85.0795C60.9041 85.0795 58.5541 85.5595 57.9341 81.9995C57.0541 76.9795 52.0841 74.7295 47.8341 77.5495C44.5341 79.7495 43.2041 77.5495 41.3141 75.8295C39.3741 74.0695 38.1741 72.3695 40.3841 69.8995C41.1641 69.0195 41.4641 67.7095 41.7641 67.0395L41.7841 67.0295ZM63.2941 40.5695C56.0141 39.4395 48.6941 46.8395 48.7041 54.8095C48.7041 62.8395 56.2341 69.1195 63.0441 69.1795C70.5441 69.2395 77.4641 61.9295 77.5241 54.8695C77.5841 47.1795 70.0741 39.4695 63.2941 40.5695Z" fill="#FA2525"/>
<path d="M7.16427 10.8195C7.16427 13.8295 6.83427 15.9594 7.26427 17.9294C7.67427 19.8094 8.54427 21.8094 9.81427 23.1994C10.9643 24.4594 13.7043 26.1095 14.4043 25.6295C17.0843 23.7995 20.9843 22.6095 20.6443 18.1095C20.4943 16.0295 20.6143 13.9195 20.6143 11.7495C24.9943 12.7695 28.4743 19.4294 27.4243 24.3694C26.5443 28.5394 24.4043 31.8495 20.8543 34.3795C19.7643 35.1495 18.7543 36.8694 18.7343 38.1694C18.5643 49.4795 18.5743 60.7994 18.7143 72.1094C18.7343 73.3394 19.6043 74.9194 20.5843 75.7195C24.7443 79.1095 27.0843 83.1394 26.0043 88.6494C24.7943 94.8094 20.6043 98.0795 14.8343 99.1595C10.0443 100.059 1.97427 95.4895 1.33427 88.4395C0.814269 82.7195 2.55427 78.2494 7.69427 75.2394C8.54427 74.7394 9.37427 73.3694 9.38427 72.3994C9.50427 60.9594 9.58427 49.5194 9.30427 38.0894C9.27427 36.6594 7.39427 34.9395 5.96427 33.9395C-1.19573 28.9495 -2.10573 18.3494 4.30427 12.5894C4.82427 12.1194 5.51427 11.8295 7.15427 10.8295L7.16427 10.8195ZM13.6543 91.3795C16.8743 91.3495 18.6643 89.5095 18.6043 86.2794C18.5443 83.1694 16.5143 81.0695 13.5743 81.0894C11.1043 81.1094 8.41427 83.8994 8.40427 86.4294C8.40427 89.3994 10.5243 91.3994 13.6543 91.3694V91.3795Z" fill="#FA2525"/>
<path d="M106.594 74.2495C106.594 68.5395 106.684 62.8195 106.554 57.1195C106.494 54.5295 107.414 53.7095 110.004 53.6695C120.144 53.4995 120.154 53.4195 120.134 63.4795C120.114 72.9095 120.244 82.3595 119.954 91.7795C119.784 97.3595 113.954 100.259 109.544 96.9695C108.024 95.8395 106.874 93.3395 106.744 91.3795C106.374 85.6895 106.614 79.9695 106.614 74.2495H106.594Z" fill="#FA2525"/>
<path d="M110.685 35.6194C110.685 32.5094 110.955 29.3794 110.595 26.3194C110.325 24.0194 109.155 21.8294 108.545 19.5494C108.145 18.0594 107.775 16.4694 107.845 14.9494C107.935 12.9994 108.494 11.0794 108.825 9.13939C109.244 6.68939 110.765 6.01939 113.095 6.14939C115.145 6.25939 117.195 6.0394 117.685 8.7394C118.085 10.9194 118.725 13.1194 118.705 15.3094C118.685 16.9894 117.824 18.6694 117.304 20.3394C116.804 21.9394 115.834 23.5094 115.804 25.1094C115.644 32.4294 115.744 39.7594 115.724 47.0894C115.724 48.6694 116.045 50.3994 113.485 50.4694C110.995 50.5394 110.624 49.1794 110.664 47.1694C110.724 43.3194 110.685 39.4694 110.685 35.6194Z" fill="#FA2525"/>
<path d="M62.6144 109.479C51.9744 109.729 41.9444 106.329 32.6744 100.409C32.1544 100.079 31.5044 99.7895 31.2244 99.2995C30.6144 98.2495 30.2144 97.0795 29.7344 95.9595C30.9344 96.1295 32.2544 96.0395 33.3144 96.5095C39.2644 99.1295 44.9244 102.749 51.1144 104.429C67.8344 108.969 82.8344 104.529 96.3344 94.0695C97.3344 93.2895 98.9644 93.3095 100.294 92.9595C99.6344 94.2695 99.3044 95.9895 98.2744 96.8195C88.0244 105.049 76.4344 109.699 62.6244 109.479H62.6144Z" fill="#FA2525"/>
<path d="M62.0544 0.0495369C76.4444 -0.160463 88.0344 4.49953 98.3544 12.6795C98.9344 13.1395 99.6744 13.5795 99.9544 14.2095C100.444 15.2795 100.634 16.4995 100.954 17.6495C99.8044 17.3395 98.3444 17.3795 97.5544 16.6695C80.3244 1.15953 55.7544 -0.970463 35.5744 11.4095C34.9444 11.7995 34.3844 12.4295 33.7044 12.5995C32.8544 12.8095 31.9144 12.6495 31.0044 12.6595C31.2444 11.6895 31.1644 10.2295 31.7744 9.83953C34.8944 7.84953 38.0644 5.82953 41.4644 4.38953C48.3444 1.47953 55.5144 -0.360469 62.0444 0.0595314L62.0544 0.0495369Z" fill="#FA2525"/>
</svg>
