<svg width="21" height="22" viewBox="0 0 21 22" fill="none" xmlns="http://www.w3.org/2000/svg">
<path d="M20.5606 6.22308C20.5137 5.09841 20.3419 4.32521 20.0957 3.65522C19.8418 2.94404 19.4511 2.30733 18.9392 1.77802C18.4391 1.24048 17.8335 0.822787 17.1693 0.558216C16.5325 0.297683 15.8058 0.11581 14.7431 0.0662235C13.6725 0.0124371 13.3326 0 10.6172 0C7.90184 0 7.56196 0.0124371 6.49531 0.062024C5.43263 0.111611 4.70204 0.293645 4.06914 0.554017C3.39701 0.822787 2.79538 1.23628 2.29526 1.77802C1.78734 2.30733 1.39282 2.94824 1.14268 3.65118C0.89651 4.32521 0.724662 5.09421 0.677808 6.21888C0.626986 7.35195 0.615234 7.71165 0.615234 10.5854C0.615234 13.4592 0.626986 13.8189 0.67384 14.9478C0.720694 16.0725 0.892694 16.8457 1.13887 17.5156C1.39282 18.2268 1.78734 18.8635 2.29526 19.3928C2.79538 19.9304 3.40097 20.3481 4.06517 20.6126C4.70204 20.8732 5.42866 21.0551 6.49149 21.1046C7.55799 21.1544 7.89802 21.1667 10.6134 21.1667C13.3288 21.1667 13.6687 21.1544 14.7353 21.1046C15.798 21.0551 16.5286 20.8732 17.1615 20.6126C18.5056 20.0627 19.5683 18.938 20.0879 17.5156C20.334 16.8416 20.506 16.0725 20.5528 14.9478C20.5997 13.8189 20.6114 13.4592 20.6114 10.5854C20.6114 7.71165 20.6075 7.35195 20.5606 6.22308ZM18.7596 14.8651C18.7165 15.8988 18.5524 16.457 18.4157 16.8292C18.0796 17.7513 17.3881 18.4832 16.5168 18.8388C16.1652 18.9836 15.6339 19.1572 14.661 19.2026C13.6061 19.2523 13.2897 19.2646 10.6212 19.2646C7.95266 19.2646 7.63231 19.2523 6.58123 19.2026C5.60448 19.1572 5.07703 18.9836 4.72539 18.8388C4.29181 18.6692 3.89714 18.4005 3.57679 18.049C3.24469 17.7058 2.99074 17.2923 2.83049 16.8334C2.69374 16.4612 2.52968 15.8988 2.48679 14.8693C2.43978 13.7529 2.42819 13.4179 2.42819 10.5937C2.42819 7.76948 2.43978 7.43045 2.48679 6.31821C2.52968 5.28448 2.69374 4.72626 2.83049 4.35412C2.99074 3.89508 3.24469 3.47754 3.58076 3.13835C3.90492 2.78688 4.29562 2.51811 4.72936 2.34868C5.08099 2.20395 5.61241 2.03032 6.5852 1.98477C7.6401 1.93518 7.95663 1.92274 10.625 1.92274C13.2975 1.92274 13.6139 1.93518 14.665 1.98477C15.6417 2.03032 16.1692 2.20395 16.5208 2.34868C16.9544 2.51811 17.3491 2.78688 17.6694 3.13835C18.0015 3.48158 18.2555 3.89508 18.4157 4.35412C18.5524 4.72626 18.7165 5.28852 18.7596 6.31821C18.8064 7.43465 18.8182 7.76948 18.8182 10.5937C18.8182 13.4179 18.8064 13.7487 18.7596 14.8651Z" fill="#FA2525"/>
<path d="M10.6163 5.14795C7.77985 5.14795 5.47852 7.58336 5.47852 10.5854C5.47852 13.5874 7.77985 16.0228 10.6163 16.0228C13.4528 16.0228 15.754 13.5874 15.754 10.5854C15.754 7.58336 13.4528 5.14795 10.6163 5.14795ZM10.6163 14.1125C8.77614 14.1125 7.28353 12.533 7.28353 10.5854C7.28353 8.63777 8.77614 7.05826 10.6163 7.05826C12.4565 7.05826 13.949 8.63777 13.949 10.5854C13.949 12.533 12.4565 14.1125 10.6163 14.1125Z" fill="#FA2525"/>
<path d="M17.1578 4.93297C17.1578 5.63397 16.6207 6.20236 15.9582 6.20236C15.2959 6.20236 14.7588 5.63397 14.7588 4.93297C14.7588 4.2318 15.2959 3.66357 15.9582 3.66357C16.6207 3.66357 17.1578 4.2318 17.1578 4.93297Z" fill="#FA2525"/>
</svg>
