<svg width="21" height="22" viewBox="0 0 21 22" fill="none" xmlns="http://www.w3.org/2000/svg">
<path d="M18.6152 0H2.61523C1.51523 0 0.615234 0.9525 0.615234 2.11667V19.05C0.615234 20.2142 1.51523 21.1667 2.61523 21.1667H18.6152C19.7152 21.1667 20.6152 20.2142 20.6152 19.05V2.11667C20.6152 0.9525 19.7152 0 18.6152 0ZM6.61523 17.9917H3.61523V8.46667H6.61523V17.9917ZM5.11523 6.6675C4.11523 6.6675 3.31523 5.82083 3.31523 4.7625C3.31523 3.70417 4.11523 2.8575 5.11523 2.8575C6.11523 2.8575 6.91523 3.70417 6.91523 4.7625C6.91523 5.82083 6.11523 6.6675 5.11523 6.6675ZM17.6152 17.9917H14.6152V12.3825C14.6152 11.5359 13.9152 10.795 13.1152 10.795C12.3152 10.795 11.6152 11.5359 11.6152 12.3825V17.9917H8.61523V8.46667H11.6152V9.73667C12.1152 8.89 13.2152 8.255 14.1152 8.255C16.0152 8.255 17.6152 9.94833 17.6152 11.9592V17.9917Z" fill="#FA2525"/>
</svg>
