<svg width="87" height="130" viewBox="0 0 87 130" fill="none" xmlns="http://www.w3.org/2000/svg">
<path d="M85.6429 44.7104C85.362 47.5516 85.0705 50.2988 84.8234 53.0483C84.4707 56.9646 83.6406 60.8005 82.2635 64.4084C80.9582 67.8285 79.3382 71.1725 77.452 74.2752C72.9405 81.6988 66.3062 86.4467 58.7046 89.6723C52.4548 92.3257 45.8839 93.1863 39.1589 92.6319C39.0237 92.6207 38.8906 92.5671 38.709 92.5202V70.0012C39.6721 70.0616 40.574 70.1018 41.4738 70.18C47.1491 70.6808 52.778 70.2739 58.3646 69.1674C64.5088 67.9492 70.2412 65.6736 75.2322 61.5874C79.6318 57.9862 82.7345 53.3948 84.458 47.7841C84.76 46.8005 85.0431 45.808 85.3388 44.82C85.3451 44.7999 85.3979 44.7954 85.6387 44.7104H85.6429Z" fill="#111111"/>
<path d="M16.8012 11.6002V83.5182C7.67042 77.0848 -0.814057 61.842 0.0624824 45.477C0.808069 31.5373 6.18559 20.108 16.4717 11.3923C16.5816 11.4616 16.6914 11.5287 16.8012 11.598V11.6002Z" fill="#111111"/>
<path d="M38.6534 21.6211C45.1926 20.6487 51.5882 19.8999 57.669 23.1121C61.6673 25.2245 63.8597 28.7988 64.4004 33.493C64.806 37.0092 64.4131 40.407 62.8818 43.5856C61.0041 47.4841 57.8866 49.8223 54.0383 51.1411C49.2458 52.7841 44.3541 52.6723 39.4307 52.0107C38.5922 51.8989 38.6513 51.3557 38.6513 50.7432C38.6555 44.8263 38.6534 38.9093 38.6534 32.9923C38.6534 29.6795 38.6534 26.369 38.6534 23.0562C38.6534 22.6516 38.6534 22.247 38.6534 21.6233V21.6211Z" fill="#111111"/>
<path d="M36.3486 3.04992C39.8337 2.71238 43.3145 2.24295 46.808 2.0686C52.8825 1.76682 58.9676 1.68635 65.0463 1.44046C70.5632 1.21693 76.0759 0.921861 81.5886 0.602205C83.1939 0.508321 84.7906 0.211019 86.3916 0.0143079C86.6282 -0.0147517 86.869 0.00983718 86.9999 0.00983718C86.6324 9.69338 86.267 19.3009 85.9101 28.6603C85.2912 26.7201 84.7315 24.4847 83.8803 22.3835C81.1451 15.6394 76.566 10.7418 70.2633 7.6838C64.8224 5.04385 59.0584 3.76299 53.1085 3.55063C47.7014 3.35839 42.2859 3.41204 36.8724 3.35616C36.7014 3.35616 36.5303 3.35616 36.3592 3.35616C36.355 3.25333 36.3529 3.15051 36.3486 3.04992Z" fill="#111111"/>
<path d="M15.4263 120.656C15.4263 123.095 15.3735 125.514 15.4495 127.93C15.4855 129.043 15.1137 129.372 14.121 129.287C13.2149 129.211 12.3003 129.271 11.2738 129.271C11.2464 128.793 11.2041 128.402 11.202 128.008C11.1725 121.418 11.1619 114.829 11.1028 108.239C11.0943 107.219 11.3288 106.752 12.3764 106.754C14.4484 106.754 16.5289 106.5 18.5924 106.607C22.352 106.801 24.5634 109.095 24.8317 112.81C25.0851 116.326 22.9033 119.407 19.488 120.178C18.1996 120.468 16.8562 120.495 15.4242 120.656H15.4263ZM15.4305 110.476V116.588C17.059 116.711 18.6537 116.979 19.7942 115.387C20.4786 114.431 20.5293 112.66 19.866 111.701C18.7234 110.049 17.0843 110.327 15.4305 110.474V110.476Z" fill="#111111"/>
<path d="M73.4957 127.02C73.1979 127.452 73.0458 127.754 72.8261 127.982C70.564 130.317 67.2902 130.029 65.4168 127.344C63.3194 124.338 63.18 119.389 65.1337 116.288C66.2764 114.476 67.9049 113.391 69.96 113.344C72.2031 113.293 74.4483 113.49 76.6935 113.541C77.4306 113.559 77.3187 114.073 77.3229 114.543C77.3377 117.442 77.3123 120.343 77.3715 123.243C77.4053 124.872 77.532 126.504 77.6989 128.122C77.7791 128.896 77.5827 129.265 76.8477 129.271C76.6724 129.271 76.4971 129.271 76.3218 129.271C74.3955 129.265 74.2814 129.186 73.4957 127.018V127.02ZM73.2993 117.042C72.5642 117.042 72.0404 117.037 71.5166 117.042C69.4657 117.06 68.2703 118.074 67.8774 120.124C67.474 122.225 68.4773 124.834 69.9536 125.536C71.1132 126.086 73.2317 125.136 73.276 123.944C73.3563 121.696 73.2993 119.442 73.2993 117.042Z" fill="#111111"/>
<path d="M30.8346 123.372C30.8832 124.763 31.5823 125.339 32.5835 125.608C34.2288 126.048 35.8235 125.851 37.2555 124.899C38.1912 124.278 38.7066 124.421 39.26 125.435C40.3477 127.429 40.3942 127.4 38.4046 128.467C34.5288 130.545 29.9496 129.649 27.9431 126.2C26.0696 122.981 26.0527 119.532 27.7678 116.215C28.9654 113.897 32.0322 112.79 34.928 113.385C37.4984 113.912 39.3022 115.801 39.7711 118.466C40.0774 120.194 39.5831 121.647 38.0307 122.212C36.3325 122.829 34.495 123.035 32.7102 123.357C32.1336 123.462 31.5253 123.372 30.8346 123.372ZM31.0268 120.102C32.3575 120.024 33.6184 120.03 34.8456 119.827C35.2237 119.764 35.7876 119.118 35.7834 118.747C35.777 118.231 35.4349 117.473 35.0251 117.252C33.0587 116.19 31.0564 117.563 31.0268 120.102Z" fill="#111111"/>
<path d="M42.9156 117.274C41.2639 116.968 41.2238 116.966 41.3674 115.399C41.4033 115.012 41.7223 114.505 42.0433 114.33C42.6938 113.979 43.0276 113.563 42.8903 112.781C42.7445 111.954 43.0973 111.462 43.8154 111.156C44.4638 110.879 45.0806 110.517 45.7142 110.199C46.7111 109.701 46.9202 109.839 46.9435 111.044C46.9583 111.851 46.9456 112.658 46.9456 113.55C47.9362 113.55 48.7768 113.568 49.6153 113.546C50.3292 113.525 50.6503 113.867 50.6355 114.616C50.6207 115.392 50.6313 116.168 50.6313 117.091H47.0956C47.0956 119.753 47.0385 122.268 47.1251 124.778C47.1568 125.71 47.9256 126.037 48.7515 125.952C49.4062 125.885 50.0504 125.728 50.8024 125.594C50.9713 126.555 51.172 127.456 51.2586 128.368C51.2818 128.612 50.9671 129.108 50.7812 129.121C49.1887 129.242 47.5623 129.499 45.9994 129.285C44.2632 129.048 43.1395 127.485 43.0149 125.464C42.8839 123.316 42.9389 121.155 42.9156 118.998C42.9093 118.414 42.9156 117.831 42.9156 117.274Z" fill="#111111"/>
<path d="M53.6756 129.269C53.6756 125.362 53.6756 121.642 53.6756 117.92C53.6756 117.212 53.6692 116.505 53.6671 115.797C53.6587 113.467 54.0811 113.119 56.2503 113.615C57.2747 113.85 57.7203 114.545 57.7245 115.633C59.2601 114.797 60.7555 113.984 62.4748 113.049C62.4748 114.645 62.5233 115.902 62.441 117.147C62.422 117.444 62.0101 117.869 61.7059 117.958C60.9329 118.188 60.107 118.211 59.3234 118.412C58.1111 118.725 57.7647 119.239 57.771 120.542C57.7816 123.075 57.7795 125.608 57.8301 128.14C57.847 128.956 57.5915 129.305 56.8058 129.276C55.83 129.24 54.852 129.267 53.6756 129.267V129.269Z" fill="#111111"/>
</svg>
