<svg width="45" height="68" viewBox="0 0 45 68" fill="none" xmlns="http://www.w3.org/2000/svg">
<path d="M44.2986 23.126C44.1533 24.5955 44.0026 26.0165 43.8747 27.4387C43.6923 29.4644 43.263 31.4484 42.5507 33.3146C41.8755 35.0836 41.0376 36.8133 40.062 38.4181C37.7284 42.2579 34.2969 44.7137 30.365 46.3821C27.1324 47.7545 23.7336 48.1997 20.2552 47.9129C20.1852 47.9072 20.1164 47.8794 20.0225 47.8551V36.2074C20.5206 36.2386 20.9871 36.2594 21.4525 36.2999C24.388 36.5589 27.2995 36.3485 30.1892 35.7761C33.3672 35.146 36.3322 33.969 38.9138 31.8554C41.1894 29.9927 42.7943 27.6179 43.6857 24.7158C43.842 24.207 43.9884 23.6937 44.1413 23.1826C44.1446 23.1722 44.1719 23.1699 44.2964 23.126H44.2986Z" fill="#FA2525"/>
<path d="M8.69029 6.00011V43.1991C3.96746 39.8715 -0.421064 31.9872 0.0323185 23.5226C0.417967 16.3124 3.19944 10.4007 8.51986 5.89258C8.57667 5.92842 8.63348 5.96311 8.69029 5.99895V6.00011Z" fill="#FA2525"/>
<path d="M19.9937 11.1834C23.3761 10.6804 26.6841 10.2931 29.8294 11.9546C31.8975 13.0472 33.0315 14.896 33.3112 17.324C33.5209 19.1428 33.3177 20.9002 32.5257 22.5443C31.5545 24.5608 29.9419 25.7702 27.9514 26.4524C25.4726 27.3022 22.9424 27.2444 20.3958 26.9021C19.9621 26.8443 19.9927 26.5633 19.9927 26.2465C19.9948 23.186 19.9937 20.1255 19.9937 17.065C19.9937 15.3515 19.9937 13.6392 19.9937 11.9257C19.9937 11.7164 19.9937 11.5071 19.9937 11.1845V11.1834Z" fill="#FA2525"/>
<path d="M18.8008 1.57748C20.6034 1.40289 22.4038 1.16009 24.2108 1.0699C27.3528 0.913811 30.5002 0.872187 33.6444 0.745003C36.498 0.629382 39.3494 0.476761 42.2008 0.311422C43.0311 0.262861 43.857 0.109085 44.6851 0.00733749C44.8075 -0.00769332 44.932 0.00502506 44.9997 0.00502506C44.8096 5.01375 44.6206 9.98317 44.436 14.8243C44.1159 13.8207 43.8264 12.6644 43.3861 11.5776C41.9714 8.08929 39.6028 5.55602 36.3429 3.97432C33.5286 2.60882 30.5472 1.94631 27.4697 1.83647C24.6729 1.73704 21.8718 1.76479 19.0717 1.73588C18.9832 1.73588 18.8947 1.73588 18.8062 1.73588C18.8041 1.68269 18.803 1.62951 18.8008 1.57748Z" fill="#FA2525"/>
<path d="M7.97862 62.4084C7.97862 63.6698 7.95131 64.9208 7.99064 66.1707C8.00921 66.7465 7.81693 66.9165 7.30347 66.8725C6.83479 66.8332 6.36174 66.8644 5.83079 66.8644C5.81659 66.617 5.79474 66.4147 5.79365 66.2112C5.77835 62.8027 5.77289 59.3941 5.7423 55.9856C5.73793 55.4584 5.8592 55.2167 6.40107 55.2179C7.4728 55.2179 8.5489 55.0861 9.61626 55.1416C11.5609 55.2422 12.7047 56.4284 12.8435 58.3501C12.9746 60.1688 11.846 61.7621 10.0795 62.161C9.41306 62.3113 8.71824 62.3251 7.97753 62.4084H7.97862ZM7.98081 57.143V60.3041C8.82312 60.3677 9.64794 60.5064 10.2379 59.6832C10.5919 59.1883 10.6181 58.2726 10.275 57.7766C9.684 56.9221 8.83623 57.0655 7.98081 57.1418V57.143Z" fill="#111111"/>
<path d="M38.0145 65.7002C37.8604 65.9233 37.7818 66.0794 37.6682 66.1974C36.4981 67.4056 34.8047 67.2565 33.8357 65.8678C32.7509 64.3127 32.6788 61.7529 33.6893 60.1492C34.2804 59.2115 35.1227 58.6507 36.1857 58.6265C37.3459 58.5999 38.5072 58.7016 39.6685 58.7282C40.0498 58.7375 39.9919 59.0034 39.9941 59.2462C40.0017 60.7458 39.9886 62.2466 40.0192 63.7462C40.0367 64.5891 40.1022 65.4331 40.1885 66.2702C40.23 66.6703 40.1284 66.861 39.7483 66.8645C39.6576 66.8645 39.5669 66.8645 39.4762 66.8645C38.4799 66.861 38.4209 66.8206 38.0145 65.699V65.7002ZM37.9129 60.5388C37.5327 60.5388 37.2618 60.5365 36.9908 60.5388C35.93 60.5481 35.3117 61.073 35.1085 62.1333C34.8998 63.2201 35.4187 64.5694 36.1824 64.9325C36.7822 65.2169 37.8779 64.7255 37.9009 64.1092C37.9424 62.9461 37.9129 61.7806 37.9129 60.5388Z" fill="#111111"/>
<path d="M15.9494 63.8132C15.9745 64.5324 16.3362 64.8307 16.854 64.9694C17.705 65.1972 18.5299 65.0954 19.2706 64.6029C19.7546 64.2815 20.0211 64.3555 20.3074 64.8804C20.87 65.9117 20.894 65.8967 19.8649 66.4482C17.8602 67.5235 15.4917 67.0598 14.4538 65.2758C13.4848 63.6109 13.476 61.8268 14.3631 60.111C14.9826 58.912 16.5689 58.3397 18.0667 58.6472C19.3962 58.9201 20.3292 59.8971 20.5717 61.2753C20.7301 62.1691 20.4745 62.9206 19.6715 63.2131C18.7932 63.5322 17.8427 63.6386 16.9195 63.8051C16.6213 63.8594 16.3067 63.8132 15.9494 63.8132ZM16.0488 62.1217C16.7371 62.0812 17.3893 62.0846 18.0241 61.9794C18.2196 61.9471 18.5113 61.6129 18.5091 61.421C18.5058 61.1539 18.3289 60.7619 18.1169 60.6475C17.0998 60.0983 16.0641 60.8082 16.0488 62.1217Z" fill="#111111"/>
<path d="M22.1973 60.6589C21.343 60.5005 21.3222 60.4994 21.3965 59.6888C21.4151 59.4888 21.5801 59.2264 21.7461 59.1362C22.0826 58.9546 22.2552 58.7396 22.1842 58.3349C22.1088 57.9071 22.2913 57.6527 22.6627 57.4943C22.9981 57.351 23.3171 57.1637 23.6449 56.9995C24.1605 56.7416 24.2687 56.8133 24.2807 57.4365C24.2884 57.8539 24.2818 58.2713 24.2818 58.7327C24.7942 58.7327 25.229 58.7419 25.6627 58.7303C26.032 58.7199 26.198 58.8968 26.1904 59.2842C26.1827 59.6854 26.1882 60.0866 26.1882 60.5641H24.3594C24.3594 61.9412 24.3299 63.2419 24.3747 64.5403C24.391 65.0225 24.7887 65.1913 25.2159 65.1473C25.5545 65.1127 25.8878 65.0317 26.2767 64.9623C26.3641 65.4595 26.4679 65.9255 26.5127 66.3972C26.5247 66.5232 26.3619 66.7799 26.2658 66.7869C25.442 66.8493 24.6008 66.9823 23.7924 66.8713C22.8943 66.7487 22.3131 65.9405 22.2487 64.8953C22.1809 63.7842 22.2093 62.6661 22.1973 61.5504C22.1941 61.2486 22.1973 60.9468 22.1973 60.6589Z" fill="#111111"/>
<path d="M27.7632 66.8634C27.7632 64.8423 27.7632 62.9184 27.7632 60.9933C27.7632 60.6268 27.7599 60.2614 27.7589 59.8949C27.7545 58.6901 27.973 58.5097 29.095 58.7664C29.6248 58.8878 29.8553 59.2474 29.8575 59.8105C30.6518 59.378 31.4252 58.9572 32.3145 58.4739C32.3145 59.2994 32.3397 59.9492 32.297 60.5932C32.2872 60.747 32.0742 60.9667 31.9169 61.0129C31.517 61.132 31.0898 61.1436 30.6845 61.2476C30.0574 61.4095 29.8783 61.6754 29.8816 62.3495C29.887 63.6595 29.8859 64.9695 29.9121 66.2795C29.9209 66.7015 29.7887 66.8819 29.3823 66.8669C28.8776 66.8484 28.3717 66.8622 27.7632 66.8622V66.8634Z" fill="#111111"/>
</svg>
