<svg width="280" height="338" viewBox="0 0 280 338" fill="none" xmlns="http://www.w3.org/2000/svg">
<g opacity="0.1">
<path d="M279.787 127.836C277.266 154.227 280.002 181.351 273.824 206.885C259.131 267.801 218.556 307.31 161.72 332.416C144.046 340.214 129.076 339.786 111.986 331.499C40.0884 296.607 0.71239 241.135 0.189836 160.404C0.00540535 133.799 0.435658 107.194 0.00531904 80.5899C-0.148373 71.8134 3.01775 66.7371 10.9175 62.7312C49.4021 43.2517 87.7022 23.4358 125.879 3.37536C134.548 -1.18106 142.079 -1.05875 150.716 3.34477C189.816 23.2524 229.038 42.9459 268.445 62.2725C276.805 66.3702 280.279 71.6299 279.941 80.8957C279.357 96.4609 279.787 112.057 279.787 127.652C280.525 127.714 279.049 127.775 279.787 127.867V127.836ZM259.592 132.454C259.592 118.387 259.254 104.32 259.715 90.2837C259.961 82.547 257.686 78.0212 250.217 74.3821C215.912 57.6855 181.854 40.4383 147.95 22.9772C141.033 19.4299 135.562 19.6133 128.769 23.2218C96.0324 40.4995 63.2037 57.5937 30.0983 74.1069C22.6289 77.8377 20.6309 82.4553 20.7231 90.1003C21.092 114.411 20.7231 138.753 20.8768 163.064C21.2764 234.744 64.341 294.956 132.273 318.716C135.285 319.756 139.22 320.307 142.079 319.267C190.922 301.53 228.331 271.47 248.526 222.328C260.483 193.247 260.022 162.942 259.592 132.515V132.454Z" fill="#111111"/>
<path d="M118.163 217.925C102.149 200.341 86.8717 183.553 71.7176 166.856C84.4741 152.239 84.9659 152.208 96.3392 164.685C104.27 173.37 112.2 182.085 120.868 191.595C136.484 179.73 151.607 168.232 166.7 156.704C173.985 151.169 181.208 145.542 188.524 140.037C197.725 133.086 205.891 134.89 213.022 145.45C181.669 169.394 150.285 193.369 118.133 217.894L118.163 217.925Z" fill="#111111"/>
</g>
</svg>
