<svg width="92" height="111" viewBox="0 0 92 111" fill="none" xmlns="http://www.w3.org/2000/svg">
<path d="M91.0218 41.8038C90.2018 50.4338 91.0918 59.3038 89.0817 67.6538C84.3018 87.5738 71.1017 100.494 52.6117 108.704C46.8617 111.254 41.9918 111.114 36.4318 108.404C13.0418 96.9938 0.231759 78.8538 0.0617585 52.4538C0.0017585 43.7538 0.14173 35.0538 0.00173042 26.3538C-0.0482696 23.4838 0.981749 21.8238 3.55175 20.5138C16.0717 14.1438 28.5317 7.66378 40.9517 1.10378C43.7717 -0.38622 46.2218 -0.346222 49.0318 1.09378C61.7518 7.60378 74.5117 14.0438 87.3317 20.3638C90.0518 21.7038 91.1817 23.4238 91.0717 26.4538C90.8817 31.5438 91.0218 36.6438 91.0218 41.7438C91.2617 41.7638 90.7818 41.7838 91.0218 41.8138V41.8038ZM84.4517 43.3138C84.4517 38.7138 84.3417 34.1138 84.4917 29.5238C84.5717 26.9938 83.8318 25.5138 81.4018 24.3238C70.2418 18.8638 59.1617 13.2238 48.1317 7.51378C45.8817 6.35378 44.1017 6.41378 41.8917 7.59378C31.2417 13.2438 20.5617 18.8338 9.79174 24.2338C7.36174 25.4538 6.71175 26.9638 6.74175 29.4638C6.86175 37.4138 6.74174 45.3738 6.79174 53.3238C6.92174 76.7638 20.9318 96.4538 43.0318 104.224C44.0118 104.564 45.2918 104.744 46.2218 104.404C62.1118 98.6038 74.2818 88.7738 80.8518 72.7038C84.7418 63.1938 84.5917 53.2838 84.4517 43.3338V43.3138Z" fill="#FA2525"/>
<path d="M38.4415 71.2638C33.2315 65.5138 28.2615 60.0238 23.3315 54.5638C27.4815 49.7838 27.6416 49.7738 31.3416 53.8538C33.9216 56.6938 36.5015 59.5438 39.3215 62.6538C44.4015 58.7738 49.3216 55.0138 54.2316 51.2438C56.6016 49.4338 58.9515 47.5938 61.3315 45.7938C64.3249 43.5205 66.9815 44.1105 69.3015 47.5638C59.1015 55.3938 48.8915 63.2338 38.4315 71.2538L38.4415 71.2638Z" fill="#FA2525"/>
</svg>
