<svg width="170" height="179" viewBox="0 0 170 179" fill="none" xmlns="http://www.w3.org/2000/svg">
<path d="M30 70C30 31.3401 61.3401 0 100 0H166.889C168.607 0 170 1.39289 170 3.11111V70C170 108.66 138.66 140 100 140C61.3401 140 30 108.66 30 70Z" fill="#FA2525"/>
<path d="M139.894 73.918C138.633 87.1133 140.001 100.676 136.912 113.443C129.565 143.9 109.278 163.655 80.8602 176.208C72.0229 180.107 64.5381 179.893 55.9928 175.749C20.0442 158.304 0.356195 130.567 0.0949181 90.2018C0.00270268 76.8995 0.217829 63.5972 0.00265952 50.2949C-0.0741867 45.9067 1.50887 43.3686 5.45877 41.3656C24.7011 31.6259 43.8511 21.7179 62.9397 11.6877C67.2738 9.40947 71.0393 9.47063 75.3581 11.6724C94.9078 21.6262 114.519 31.4729 134.222 41.1362C138.403 43.1851 140.139 45.815 139.97 50.4478C139.678 58.2304 139.894 66.0283 139.894 73.8262C140.262 73.8568 139.525 73.8874 139.894 73.9333V73.918ZM129.796 76.2268C129.796 69.1934 129.627 62.16 129.857 55.1419C129.98 51.2735 128.843 49.0106 125.108 47.1911C107.956 38.8427 90.9271 30.2192 73.9748 21.4886C70.5167 19.7149 67.781 19.8067 64.3844 21.6109C48.0162 30.2497 31.6018 38.7969 15.0492 47.0535C11.3144 48.9188 10.3155 51.2276 10.3616 55.0501C10.546 67.2057 10.3615 79.3765 10.4384 91.5321C10.6382 127.372 32.1705 157.478 66.1365 169.358C67.6427 169.878 69.61 170.153 71.0393 169.633C95.4611 160.765 114.165 145.735 124.263 121.164C130.242 106.623 130.011 91.4709 129.796 76.2574V76.2268Z" fill="#111111"/>
<path d="M59.0817 118.962C51.0743 110.171 43.4358 101.776 35.8588 93.4281C42.237 86.1194 42.483 86.1042 48.1696 92.3425C52.1348 96.6848 56.1001 101.042 60.4342 105.798C68.2418 99.8652 75.8035 94.1161 83.3498 88.3518C86.9923 85.5843 90.604 82.7709 94.2619 80.0187C98.8624 76.5428 102.945 77.4449 106.511 82.7251C90.8345 94.6971 75.1426 106.684 59.0664 118.947L59.0817 118.962Z" fill="#111111"/>
</svg>
