<svg width="160" height="182" viewBox="0 0 160 182" fill="none" xmlns="http://www.w3.org/2000/svg">
<path d="M20 112C20 73.3401 51.3401 42 90 42H156.889C158.607 42 160 43.3929 160 45.1111V112C160 150.66 128.66 182 90 182C51.3401 182 20 150.66 20 112Z" fill="#FA2525"/>
<path d="M102.883 84.838C96.9335 84.795 92.4179 84.623 87.9309 84.8093C86.4257 84.8667 84.8918 85.7125 83.4583 86.3862C74.9001 90.3858 66.3849 94.5 57.7981 98.4422C52.8811 100.707 50.7308 99.8328 48.6665 94.7724C44.753 85.1964 40.9971 75.5487 37.1265 65.9584C35.7073 62.4462 35.435 59.0201 39.3915 57.2855C43.6491 55.422 45.484 58.5184 46.8459 61.9302C50.057 70.001 53.2825 78.0574 56.6943 86.6012C59.9341 85.1534 62.5144 84.0639 65.0518 82.8741C84.7342 73.6278 104.417 64.3672 124.113 55.1209C129.656 52.5214 130.913 48.259 127.883 42.3338C126.364 42.9932 124.773 43.624 123.239 44.3551C107.327 52.0101 91.4431 59.7082 75.5309 67.3203C70.5565 69.6999 67.073 68.4097 66.3849 64.1091C65.7972 60.3963 68.1052 58.6044 71.0439 57.1995C84.7055 50.6483 98.3527 44.0684 112 37.4741C115.827 35.6249 119.641 33.7326 124.013 31.5823C121.547 25.4038 119.196 19.5407 116.645 13.1614C114.38 14.1076 112.588 14.7813 110.867 15.5841C77.2654 31.2669 43.6778 46.9785 10.0901 62.6613C8.79996 63.2634 7.42377 64.4102 6.19093 64.2668C4.12664 64.0231 1.07321 63.4927 0.399445 62.1165C-0.475009 60.3533 0.256083 57.5149 0.972849 55.3789C1.3169 54.3611 3.20916 53.7734 4.47067 53.1713C41.2694 35.8972 78.0682 18.6519 114.896 1.42082C120.443 -1.17387 122.536 -0.385454 124.801 5.20532C130.808 20.0997 136.743 35.0085 142.635 49.9315C144.957 55.7947 144.068 57.945 138.549 60.5827C135.338 62.1165 132.055 63.5214 128.858 65.0983C125.762 66.6321 123.067 67.908 121.547 71.9792C120.429 74.9323 115.67 76.5235 111.914 79.1469C114.752 86.3146 117.677 93.9123 120.816 101.424C121.189 102.313 122.68 103.245 123.669 103.259C132.012 103.402 140.37 103.345 149.501 103.345C149.501 100.105 149.401 97.3097 149.53 94.5287C149.673 91.0595 151.436 88.0634 154.963 88.8375C156.927 89.2676 159.536 92.4931 159.636 94.586C160.124 104.205 160.124 113.867 159.622 123.486C159.507 125.565 156.913 128.79 154.963 129.234C151.365 130.052 149.745 126.927 149.544 123.543C149.386 120.748 149.515 117.938 149.515 114.598C139.481 114.598 130.062 114.426 120.658 114.67C116.2 114.785 113.806 113.064 112.315 108.921C109.219 100.392 105.75 92.0057 102.926 84.8093L102.883 84.838Z" fill="#111111"/>
<path d="M42.0439 90.2138C40.4096 91.9484 39.0908 94.5 37.2272 94.9731C35.6503 95.3745 32.4249 93.8406 31.7224 92.3354C28.368 85.0817 25.3432 77.6273 22.9062 70.0153C22.3185 68.1947 24.01 65.0696 25.5582 63.4067C26.2607 62.647 30.4323 63.3924 30.934 64.4389C34.8045 72.61 38.1733 81.0248 42.0439 90.1994V90.2138Z" fill="#111111"/>
</svg>
