<svg width="320" height="260" viewBox="0 0 320 260" fill="none" xmlns="http://www.w3.org/2000/svg">
<g opacity="0.1">
<path d="M205.765 169.993C193.867 169.907 184.836 169.563 175.862 169.936C172.851 170.05 169.784 171.742 166.917 173.09C149.8 181.089 132.77 189.317 115.596 197.202C105.762 201.732 101.462 199.983 97.333 189.862C89.5059 170.71 81.9941 151.415 74.2531 132.234C71.4147 125.21 70.87 118.357 78.7831 114.888C87.2983 111.161 90.9681 117.354 93.6918 124.178C100.114 140.319 106.565 156.432 113.389 173.52C119.868 170.624 125.029 168.445 130.104 166.065C169.468 147.573 208.833 129.052 248.227 110.559C259.313 105.36 261.826 96.8353 255.767 84.9848C252.728 86.3037 249.545 87.5652 246.478 89.0274C214.653 104.337 182.886 119.734 151.062 134.958C141.113 139.717 134.146 137.137 132.77 128.535C131.594 121.11 136.21 117.526 142.088 114.716C169.411 101.614 196.705 88.454 224 75.2655C231.655 71.567 239.281 67.7825 248.026 63.4819C243.095 51.1249 238.393 39.3986 233.289 26.6402C228.759 28.5325 225.175 29.8799 221.735 31.4855C154.531 62.8511 87.3556 94.2742 20.1803 125.64C17.5999 126.844 14.8475 129.138 12.3819 128.851C8.25328 128.363 2.14641 127.303 0.798891 124.55C-0.950019 121.024 0.512167 115.347 1.9457 111.075C2.63379 109.039 6.41833 107.864 8.94134 106.66C82.5389 72.1117 156.136 37.6211 229.791 3.15902C240.887 -2.03036 245.073 -0.453524 249.603 10.728C261.616 40.5168 273.485 70.3342 285.269 100.18C289.914 111.907 288.136 116.207 277.098 121.483C270.676 124.55 264.11 127.36 257.717 130.514C251.524 133.581 246.134 136.133 243.095 144.276C240.858 150.182 231.34 153.364 223.828 158.611C229.505 172.946 235.353 188.142 241.632 203.165C242.378 204.943 245.36 206.806 247.338 206.835C264.024 207.122 280.739 207.007 299.002 207.007C299.002 200.527 298.802 194.937 299.06 189.374C299.346 182.436 302.873 176.444 309.926 177.992C313.854 178.852 319.072 185.303 319.272 189.489C320.247 208.727 320.247 228.051 319.244 247.289C319.014 251.446 313.825 257.897 309.926 258.786C302.729 260.42 299.49 254.17 299.088 247.404C298.773 241.813 299.031 236.194 299.031 229.513C278.962 229.513 260.125 229.169 241.317 229.657C232.4 229.886 227.612 226.446 224.631 218.16C218.438 201.101 211.5 184.328 205.851 169.936L205.765 169.993Z" fill="#111111"/>
<path d="M84.0877 180.745C80.8193 184.214 78.1815 189.317 74.4544 190.263C71.3006 191.066 64.8497 187.998 63.4448 184.988C56.7359 170.481 50.6864 155.572 45.8124 140.348C44.6369 136.707 48.0201 130.456 51.1165 127.131C52.5214 125.611 60.8645 127.102 61.868 129.195C69.6091 145.537 76.3467 162.367 84.0877 180.716V180.745Z" fill="#111111"/>
</g>
</svg>
