<svg width="112" height="91" viewBox="0 0 112 91" fill="none" xmlns="http://www.w3.org/2000/svg">
<path d="M71.7687 59.1811C67.6187 59.1511 64.4686 59.0311 61.3386 59.1611C60.2886 59.2011 59.2186 59.7911 58.2186 60.2611C52.2486 63.0511 46.3087 65.9211 40.3187 68.6711C36.8887 70.2511 35.3887 69.6411 33.9487 66.1111C31.2187 59.4311 28.5986 52.7011 25.8986 46.0111C24.9086 43.5611 24.7187 41.1711 27.4787 39.9611C30.4487 38.6611 31.7286 40.8211 32.6786 43.2011C34.9186 48.8311 37.1687 54.4511 39.5487 60.4111C41.8087 59.4011 43.6087 58.6411 45.3787 57.8111C59.1087 51.3611 72.8387 44.9011 86.5787 38.4511C90.4453 36.6378 91.322 33.6644 89.2086 29.5311C88.1486 29.9911 87.0386 30.4311 85.9686 30.9411C74.8686 36.2811 63.7887 41.6511 52.6886 46.9611C49.2186 48.6211 46.7886 47.7211 46.3086 44.7211C45.8986 42.1311 47.5086 40.8811 49.5586 39.9011C59.0886 35.3311 68.6086 30.7411 78.1286 26.1411C80.7986 24.8511 83.4586 23.5311 86.5087 22.0311C84.7887 17.7211 83.1486 13.6311 81.3686 9.18113C79.7886 9.84113 78.5386 10.3111 77.3386 10.8711C53.8986 21.8111 30.4687 32.7711 7.03865 43.7111C6.13865 44.1311 5.17865 44.9311 4.31865 44.8311C2.87865 44.6611 0.748644 44.2911 0.278644 43.3311C-0.331356 42.1011 0.178638 40.1211 0.678638 38.6311C0.918638 37.9211 2.23864 37.5111 3.11864 37.0911C28.7886 25.0411 54.4586 13.0111 80.1486 0.991132C84.0186 -0.818868 85.4786 -0.268884 87.0586 3.63112C91.2486 14.0211 95.3886 24.4211 99.4986 34.8311C101.119 38.9211 100.499 40.4211 96.6486 42.2611C94.4086 43.3311 92.1187 44.3111 89.8887 45.4111C87.7287 46.4811 85.8486 47.3711 84.7887 50.2111C84.0087 52.2711 80.6887 53.3811 78.0686 55.2111C80.0487 60.2111 82.0886 65.5111 84.2786 70.7511C84.5386 71.3711 85.5787 72.0211 86.2687 72.0311C92.0887 72.1311 97.9186 72.0911 104.289 72.0911C104.289 69.8311 104.219 67.8811 104.309 65.9411C104.409 63.5211 105.639 61.4311 108.099 61.9711C109.469 62.2711 111.289 64.5211 111.359 65.9811C111.699 72.6911 111.699 79.4311 111.349 86.1411C111.269 87.5911 109.459 89.8411 108.099 90.1511C105.589 90.7211 104.459 88.5411 104.319 86.1811C104.209 84.2311 104.299 82.2711 104.299 79.9411C97.2987 79.9411 90.7287 79.8211 84.1687 79.9911C81.0587 80.0711 79.3886 78.8711 78.3486 75.9811C76.1886 70.0311 73.7687 64.1811 71.7987 59.1611L71.7687 59.1811Z" fill="#FA2525"/>
<path d="M29.3289 62.9312C28.1889 64.1412 27.2688 65.9211 25.9688 66.2511C24.8688 66.5311 22.6188 65.4611 22.1288 64.4111C19.7888 59.3511 17.6789 54.1511 15.9789 48.8411C15.5689 47.5711 16.7489 45.3911 17.8289 44.2311C18.3189 43.7011 21.2289 44.2211 21.5789 44.9511C24.2789 50.6511 26.6289 56.5211 29.3289 62.9211V62.9312Z" fill="#FA2525"/>
</svg>
