<svg width="25" height="22" viewBox="0 0 25 22" fill="none" xmlns="http://www.w3.org/2000/svg">
<path d="M24.6154 2.50581C23.7 2.93077 22.7246 3.21245 21.7077 3.34922C22.7538 2.68817 23.5523 1.64937 23.9277 0.397282C22.9523 1.01274 21.8754 1.44747 20.7277 1.69008C19.8015 0.646398 18.4815 0 17.0415 0C14.2477 0 11.9985 2.39997 11.9985 5.34214C11.9985 5.76547 12.0323 6.17252 12.1154 6.56004C7.92 6.34349 4.20769 4.21542 1.71385 0.973667C1.27846 1.77312 1.02308 2.68817 1.02308 3.67323C1.02308 5.52287 1.92308 7.16247 3.26461 8.11172C2.45384 8.09544 1.65846 7.84632 0.984615 7.45392C0.984615 7.4702 0.984615 7.49137 0.984615 7.51254C0.984615 10.1079 2.73384 12.2636 5.02769 12.7602C4.61692 12.8791 4.16923 12.9361 3.70461 12.9361C3.38154 12.9361 3.05538 12.9166 2.74923 12.8449C3.40307 14.9599 5.25846 16.5149 7.46461 16.5654C5.74769 17.9868 3.56769 18.8432 1.20769 18.8432C0.793846 18.8432 0.396923 18.8237 0 18.7699C2.23538 20.2956 4.88461 21.1667 7.74153 21.1667C17.0277 21.1667 22.1046 13.0256 22.1046 5.969C22.1046 5.73291 22.0969 5.50496 22.0861 5.27864C23.0877 4.52641 23.9292 3.58694 24.6154 2.50581Z" fill="#FA2525"/>
</svg>
